<?xml version="1.0" standalone="no"?>
<!DOCTYPE svg PUBLIC "-//W3C//DTD SVG 1.1//EN" "http://www.w3.org/Graphics/SVG/1.1/DTD/svg11.dtd" >
<svg>
<metadata>
Created by FontForge 20090622 at Wed Feb 19 16:34:00 2020
 By deploy user
URW Software, Copyright 1993 by URW
</metadata>
<defs>
<font id="CorporateS-Light" horiz-adv-x="1024" >
  <font-face 
    font-family="CorpoSLig"
    font-weight="400"
    font-stretch="normal"
    units-per-em="2048"
    panose-1="0 0 0 0 0 0 0 0 0 0"
    ascent="1638"
    descent="-410"
    x-height="969"
    cap-height="1365"
    bbox="-318 -512 1781 1828"
    underline-thickness="100"
    underline-position="-148"
    unicode-range="U+0020-U+F002"
  />
<missing-glyph horiz-adv-x="512" 
d="M51 0v1365h410v-1365h-410zM410 51v1263h-308v-1263h308z" />
    <glyph glyph-name=".notdef" horiz-adv-x="512" 
d="M51 0v1365h410v-1365h-410zM410 51v1263h-308v-1263h308z" />
    <glyph glyph-name="glyph1" horiz-adv-x="0" 
 />
    <glyph glyph-name="glyph2" horiz-adv-x="512" 
 />
    <glyph glyph-name="space" unicode=" " horiz-adv-x="512" 
 />
    <glyph glyph-name="space" unicode="&#xa0;" horiz-adv-x="512" 
 />
    <glyph glyph-name="exclam" unicode="!" horiz-adv-x="508" 
d="M195 1343h118l-23 -982h-82zM254 187q43 0 73.5 -31t30.5 -74q0 -44 -31 -74.5t-74 -30.5t-74 30.5t-31 74.5t31 74.5t75 30.5z" />
    <glyph glyph-name="quotedbl" unicode="&#x22;" horiz-adv-x="619" 
d="M224 818h-90l-16 547h122zM486 818h-90l-15 547h121z" />
    <glyph glyph-name="numbersign" unicode="#" horiz-adv-x="1229" 
d="M1099 537l-15 -94h-233l-70 -443h-106l70 443h-323l-70 -443h-106l70 443h-233l15 94h233l50 316h-233l15 94h233l66 418h106l-66 -418h323l66 418h106l-66 -418h233l-15 -94h-233l-50 -316h233zM810 853h-323l-50 -316h323z" />
    <glyph glyph-name="dollar" unicode="$" horiz-adv-x="1065" 
d="M566 1282v-521q172 -66 235 -108q163 -108 163 -298q0 -140 -92 -243q-107 -120 -306 -133v-138h-68v137q-189 11 -289.5 109.5t-111.5 282.5h115q10 -131 82 -203t204 -84v575l-13 5q-137 54 -175 73t-83 57q-97 83 -97 233q0 151 100.5 249.5t267.5 110.5v127h68v-126
q155 -10 246 -87t105 -210h-123q-10 83 -69 133t-159 59zM498 1282q-100 -11 -159 -56q-93 -71 -93 -189q0 -122 110 -188q33 -19 142 -62v495zM566 84q112 10 182 64q94 72 94 193q0 133 -103 209q-44 32 -173 83v-549z" />
    <glyph glyph-name="percent" unicode="%" horiz-adv-x="1077" 
d="M892 1365h99l-806 -1365h-98zM785 644q107 0 177 -94q72 -95 72 -234q0 -154 -85 -250q-69 -77 -166 -77q-105 0 -175 93q-72 95 -72 234q0 140 71 233.5t178 94.5zM785 553q-63 0 -104.5 -67.5t-41.5 -169.5q0 -105 44 -173q41 -63 101 -63q64 0 106 67t42 169
t-41.5 169t-105.5 68zM292 1376q107 0 177 -93q72 -95 72 -235q0 -155 -85 -250q-69 -77 -166 -77q-104 0 -175 93q-72 95 -72 234q0 156 85 251q68 76 164 77zM292 1285q-63 0 -104.5 -67.5t-41.5 -169.5q0 -105 44 -172q41 -64 100 -64q65 0 106.5 67t41.5 169t-41 169
t-105 68z" />
    <glyph glyph-name="ampersand" unicode="&#x26;" horiz-adv-x="1221" 
d="M900 611h97q1 -134 -17.5 -216t-65.5 -158l175 -237h-134l-106 142q-136 -152 -348 -152q-178 0 -286 94q-115 100 -115 263q0 120 61.5 210.5t223.5 208.5q-106 139 -135 196.5t-29 129.5q0 114 80 187q79 72 207 72q109 0 178 -54q83 -66 83 -191q0 -97 -52 -178.5
t-178 -181.5l307 -417q49 86 54 282zM475 832q99 76 142 140.5t43 137.5q0 65 -44 106.5t-113 41.5q-74 0 -123 -44t-49 -111q0 -54 20 -91.5t124 -179.5zM450 678q-103 -76 -147 -121q-86 -89 -86 -208q0 -108 76 -182q84 -84 214 -84q166 0 279 145z" />
    <glyph glyph-name="quotesingle" unicode="'" horiz-adv-x="512" 
d="M301 818h-90l-16 547h122z" />
    <glyph glyph-name="parenleft" unicode="(" horiz-adv-x="558" 
d="M405 1377h85q-220 -307 -220 -894q0 -296 56 -523.5t164 -368.5h-85q-93 103 -144 244q-104 281 -104 648q0 602 248 894z" />
    <glyph glyph-name="parenright" unicode=")" horiz-adv-x="558" 
d="M153 -409h-85q108 141 164 368.5t56 523.5q0 586 -220 894h85q248 -292 248 -894q0 -298 -64 -528t-184 -364z" />
    <glyph glyph-name="asterisk" unicode="*" 
d="M466 1077v254h92v-254l242 78l28 -88l-242 -78l150 -206l-75 -54l-149 206l-149 -206l-75 54l150 206l-242 79l28 87z" />
    <glyph glyph-name="plus" unicode="+" horiz-adv-x="1065" 
d="M575 728h379v-78h-379v-394h-83v394h-380v78h380v393h83v-393z" />
    <glyph glyph-name="comma" unicode="," horiz-adv-x="480" 
d="M208 -244h-129q143 132 160 241q-13 -2 -20 -2q-39 0 -68 30.5t-29 71.5q0 46 32.5 77.5t78.5 31.5q54 0 87 -38.5t33 -99.5q0 -143 -145 -312z" />
    <glyph glyph-name="hyphen" unicode="-" horiz-adv-x="571" 
d="M0 560h571v-89h-571v89z" />
    <glyph glyph-name="period" unicode="." horiz-adv-x="526" 
d="M263 187q43 0 73.5 -31t30.5 -74q0 -44 -31 -74.5t-74 -30.5t-74 30.5t-31 74.5t31 74.5t75 30.5z" />
    <glyph glyph-name="slash" unicode="/" horiz-adv-x="1177" 
d="M134 -273l782 1638h127l-782 -1638h-127z" />
    <glyph glyph-name="zero" unicode="0" horiz-adv-x="1065" 
d="M538 1348q108 0 197 -62q115 -80 173 -273q46 -153 46 -348q0 -350 -144 -548q-98 -134 -277 -134t-277 134q-144 198 -144 544q0 360 144 553q101 134 282 134zM537 1250q-148 0 -218 -133q-89 -170 -89 -455q0 -277 89 -448q70 -133 214 -133q145 0 214 133
q89 172 89 451q0 286 -89 452q-69 128 -210 133z" />
    <glyph glyph-name="one" unicode="1" horiz-adv-x="1065" 
d="M249 1066v82q128 7 187.5 50t84.5 145h79v-1343h-109v1066h-242z" />
    <glyph glyph-name="two" unicode="2" horiz-adv-x="1065" 
d="M290 943h-110q3 177 75 272q102 133 305 133q139 0 232 -68q119 -86 119 -244q0 -115 -89 -254q-20 -30 -320 -434l-184 -248h616v-100h-757v87l42 56l121 165l140 190q206 279 241 331q72 108 72 206q0 102 -72 159q-67 52 -167 52q-247 0 -264 -303z" />
    <glyph glyph-name="three" unicode="3" horiz-adv-x="1065" 
d="M268 995h-106q9 152 82 236q104 117 285 117q186 0 285 -115q72 -84 72 -208q0 -205 -196 -296q246 -90 246 -340q0 -140 -72 -246q-111 -161 -340 -161q-187 0 -294.5 98.5t-107.5 269.5q0 7 1 23h103q4 -124 58 -192q77 -96 232 -96q144 0 224 81q77 78 77 215
q0 136 -81 210.5t-229 74.5q-25 0 -55 -3v108q39 -4 55 -4q96 0 164 47q96 66 96 203q0 97 -56 158q-65 71 -187 71q-222 0 -256 -251z" />
    <glyph glyph-name="four" unicode="4" horiz-adv-x="1065" 
d="M743 442h230v-104h-227v-349h-115v349h-545v86l551 919h106v-901zM634 442l4 735l-437 -735h433z" />
    <glyph glyph-name="five" unicode="5" horiz-adv-x="1065" 
d="M281 1331h592l-18 -100h-477l-58 -434q92 106 239 106q168 0 271 -111q111 -120 111 -327q0 -164 -78 -293q-114 -189 -337 -189q-153 0 -249 86.5t-107 233.5h106q16 -93 65 -146q70 -76 183 -76q141 0 219 108q81 113 81 273q0 152 -74 244.5t-197 92.5
q-165 0 -248 -157l-106 9z" />
    <glyph glyph-name="six" unicode="6" horiz-adv-x="1065" 
d="M678 1365h127q-238 -254 -395 -524q83 47 170 47q133 0 234 -100q129 -129 129 -346q0 -226 -130 -357q-100 -102 -251 -102q-148 0 -249 96q-137 130 -137 360q0 396 502 926zM563 790q-113 0 -180 -80q-89 -105 -89 -276q0 -167 89 -273q67 -80 177 -80q109 0 176 80
q89 106 89 274q0 170 -89 275q-65 77 -173 80z" />
    <glyph glyph-name="seven" unicode="7" horiz-adv-x="1065" 
d="M208 1331h805v-100l-658 -1231h-128l660 1226h-679v105z" />
    <glyph glyph-name="eight" unicode="8" horiz-adv-x="1065" 
d="M348 700q-52 26 -83 59q-81 90 -81 233q0 162 111 264q100 92 238 92t238 -92q111 -102 111 -264q0 -211 -164 -292q202 -108 202 -342q0 -171 -115 -276q-108 -99 -272 -99t-272 99q-115 105 -115 276q0 234 202 342zM536 1250q-97 0 -161 -62q-73 -70 -73 -193
q0 -121 73 -191q64 -62 158 -62t158 62q73 71 73 192q0 123 -73 192q-63 60 -155 62zM536 648q-121 0 -196 -77q-75 -78 -75 -208q0 -128 75 -205t193 -77t193 77t75 206q0 131 -75 207q-74 74 -190 77z" />
    <glyph glyph-name="nine" unicode="9" horiz-adv-x="1065" 
d="M387 -34h-128q237 252 396 524q-83 -47 -171 -47q-133 0 -233 100q-129 129 -129 346q0 226 129 357q101 102 252 102q147 0 248 -96q138 -131 138 -360q0 -399 -502 -926zM505 1250q-109 0 -176 -80q-89 -105 -89 -274t89 -275q67 -80 173 -80q113 0 180 80
q89 106 89 276q0 168 -89 273q-66 78 -177 80z" />
    <glyph glyph-name="colon" unicode=":" horiz-adv-x="526" 
d="M263 187q43 0 73.5 -31t30.5 -74q0 -44 -31 -74.5t-74 -30.5t-74 30.5t-31 74.5t31 74.5t75 30.5zM263 968q43 0 73.5 -31t30.5 -74q0 -44 -31 -74.5t-74 -30.5q-44 0 -74.5 30.5t-30.5 73.5q0 45 30.5 75.5t75.5 30.5z" />
    <glyph glyph-name="semicolon" unicode=";" horiz-adv-x="480" 
d="M229 968q43 0 73.5 -31t30.5 -74q0 -44 -31 -74.5t-75 -30.5q-43 0 -73.5 30.5t-30.5 73.5q0 45 30.5 75.5t75.5 30.5zM208 -244h-129q143 132 160 241q-13 -2 -20 -2q-39 0 -68 30.5t-29 71.5q0 46 32.5 77.5t78.5 31.5q54 0 87 -38.5t33 -99.5q0 -143 -145 -312z" />
    <glyph glyph-name="less" unicode="&#x3c;" 
d="M955 1136v-106l-772 -343l772 -343v-106l-887 402v94z" />
    <glyph glyph-name="equal" unicode="=" horiz-adv-x="1065" 
d="M112 855h842v-83h-842v83zM112 605h842v-83h-842v83z" />
    <glyph glyph-name="greater" unicode="&#x3e;" 
d="M69 237v107l772 343l-772 343v106l887 -402v-95z" />
    <glyph glyph-name="question" unicode="?" horiz-adv-x="840" 
d="M369 187q42 0 73 -31t31 -74t-31 -74t-74 -31t-74 31t-31 74q0 44 30.5 74.5t75.5 30.5zM427 368h-111l-1 24v101q0 135 21 184t124 153q80 80 109.5 131.5t29.5 109.5q0 79 -49 123.5t-136 44.5q-100 0 -152 -49t-65 -156h-102q6 132 70 208q88 106 255 106
q128 0 206 -63q96 -77 96 -219q0 -80 -36 -142t-141 -163q-86 -82 -102.5 -126.5t-16.5 -192.5q0 -33 1 -74z" />
    <glyph glyph-name="at" unicode="@" horiz-adv-x="1502" 
d="M1029 1012h85l-86 -445q-13 -65 -13 -99q0 -47 23.5 -75t63.5 -28q75 0 138 80q106 135 106 334q0 249 -165 395q-72 64 -178 100.5t-220 36.5q-178 0 -326 -86q-150 -88 -228 -249q-67 -136 -67 -294q0 -176 82 -326q165 -301 564 -301q227 0 445 105l26 -76
q-219 -108 -472 -108q-339 0 -537 200q-92 93 -145 227q-54 136 -54 282q0 205 102 375q102 169 282 256q151 73 330 73q272 0 449 -155q98 -85 150 -211q47 -113 47 -241q0 -240 -145 -398q-84 -92 -188 -92q-65 0 -104.5 39t-43.5 106q-96 -151 -256 -151q-131 0 -213 100
q-75 91 -75 233q0 174 108 301q100 118 252 118q175 0 234 -174zM768 952q-121 0 -196 -111q-67 -99 -67 -223q0 -104 46 -173q53 -77 156 -77q128 0 201 129q24 41 39.5 107.5t15.5 123.5q0 102 -48 160q-52 63 -147 64z" />
    <glyph glyph-name="A" unicode="A" horiz-adv-x="1134" 
d="M522 1377h90l473 -1377h-122l-134 388h-524l-135 -388h-121zM795 490l-228 720l-229 -720h457z" />
    <glyph glyph-name="B" unicode="B" horiz-adv-x="1099" 
d="M180 1365h210q143 0 212.5 -6.5t127.5 -26.5q107 -36 163 -126q47 -75 47 -180q0 -230 -227 -300q104 -26 164 -68q134 -95 134 -282q0 -178 -113 -280q-65 -59 -164.5 -77.5t-343.5 -18.5h-210v1365zM296 765h134q110 0 172 11t109 38q107 63 107 210q0 78 -36 134
t-100 80q-71 25 -257 25h-129v-498zM296 102h143q129 0 197 8t118 30q60 25 94.5 90t34.5 153q0 122 -74 195q-50 50 -126 67.5t-246 17.5h-141v-561z" />
    <glyph glyph-name="C" unicode="C" horiz-adv-x="1233" 
d="M1108 1009h-114q-67 274 -332 274q-186 0 -297 -150q-122 -166 -122 -450q0 -308 145 -481q101 -120 276 -120q153 0 244 94t111 273h114q-17 -173 -91 -283q-126 -189 -371 -189q-249 0 -396 179q-159 193 -159 524q0 372 193 565q142 143 354 143q183 0 300.5 -100
t144.5 -279z" />
    <glyph glyph-name="D" unicode="D" horiz-adv-x="1270" 
d="M180 1365h173q186 0 274 -11q268 -32 408 -245q119 -180 119 -425q0 -278 -144 -462q-148 -187 -391 -212q-93 -10 -274 -10h-165v1365zM296 102h93q153 0 220 8q138 17 243 108q175 153 175 463q0 274 -137 432q-104 118 -271 140q-78 10 -259 10h-64v-1161z" />
    <glyph glyph-name="E" unicode="E" horiz-adv-x="1004" 
d="M296 758h558v-102h-558v-554h608v-102h-724v1365h715v-102h-599v-505z" />
    <glyph glyph-name="F" unicode="F" horiz-adv-x="977" 
d="M296 758h558v-102h-558v-656h-116v1365h715v-102h-599v-505z" />
    <glyph glyph-name="G" unicode="G" horiz-adv-x="1260" 
d="M734 669h392v-559q-185 -133 -432 -133q-255 0 -396 153q-182 197 -182 554q0 352 173 543q66 73 162 115q103 46 222 46q181 0 294.5 -98.5t140.5 -279.5h-114q-34 127 -92 185q-89 88 -233 88q-184 0 -288 -128q-138 -168 -138 -471q0 -338 165 -499q106 -103 285 -103
q163 0 321 88v387h-280v112z" />
    <glyph glyph-name="H" unicode="H" horiz-adv-x="1267" 
d="M296 763h676v602h116v-1365h-116v666h-676v-666h-116v1365h116v-602z" />
    <glyph glyph-name="I" unicode="I" horiz-adv-x="476" 
d="M299 0h-122v1365h122v-1365z" />
    <glyph glyph-name="J" unicode="J" horiz-adv-x="557" 
d="M258 1365h122v-1089q0 -128 -5 -174t-23 -87q-35 -77 -117.5 -120t-195.5 -43q-12 0 -41 1v103q14 -1 20 -1q144 0 201 77q25 33 32 76.5t7 169.5v1087z" />
    <glyph glyph-name="K" unicode="K" horiz-adv-x="1099" 
d="M870 1365h147l-573 -650l633 -715h-169l-609 713zM180 1365h116v-1365h-116v1365z" />
    <glyph glyph-name="L" unicode="L" horiz-adv-x="946" 
d="M180 1365h122v-1263h581v-102h-703v1365z" />
    <glyph glyph-name="M" unicode="M" horiz-adv-x="1560" 
d="M180 1365h188l412 -1234l412 1234h188v-1365h-116v1259l-425 -1259h-117l-426 1259v-1259h-116v1365z" />
    <glyph glyph-name="N" unicode="N" horiz-adv-x="1285" 
d="M180 1365h129l688 -1195v1195h108v-1365h-135l-680 1191v-1191h-110v1365z" />
    <glyph glyph-name="O" unicode="O" horiz-adv-x="1305" 
d="M653 1388q154 0 278 -90q136 -99 204 -287q54 -148 54 -328q0 -312 -156 -516q-75 -98 -184 -148q-91 -42 -195 -42q-238 0 -382 190q-156 204 -156 525q0 204 74 369q79 178 224 263q105 62 239 64zM653 1283q-183 0 -293 -166q-117 -177 -117 -427q0 -264 117 -442
q110 -166 293 -166t292 166q117 179 117 435q0 260 -117 434q-110 163 -292 166z" />
    <glyph glyph-name="P" unicode="P" horiz-adv-x="1050" 
d="M180 1365h194q266 0 372 -35q118 -39 185 -151q53 -89 53 -215q0 -155 -82 -253q-89 -108 -255 -127q-87 -10 -245 -10h-106v-574h-116v1365zM296 676h102q173 0 258 18q200 41 200 272q0 97 -41 167t-114 98q-54 20 -113 26t-217 6h-75v-587z" />
    <glyph glyph-name="Q" unicode="Q" horiz-adv-x="1319" 
d="M1091 256l262 -279h-145l-180 183q-150 -183 -376 -183q-155 0 -278 90q-135 99 -204 287q-54 148 -54 329q0 312 156 515q145 190 381 190q155 0 278 -90q135 -98 204 -286q54 -148 54 -328q0 -244 -98 -428zM653 1283q-183 0 -293 -166q-117 -177 -117 -427
q0 -264 117 -442q110 -166 293 -166t292 166q117 179 117 435q0 260 -117 434q-110 163 -292 166z" />
    <glyph glyph-name="R" unicode="R" horiz-adv-x="1130" 
d="M180 1365h207q158 0 227 -6.5t137 -29.5q114 -37 176 -138q53 -84 53 -200q0 -271 -294 -368l375 -623h-145l-367 606h-253v-606h-116v1365zM296 708h96q134 0 188.5 5t105.5 23q79 27 122.5 94t43.5 162q0 88 -37.5 150.5t-105.5 89.5q-49 19 -108.5 25t-205.5 6h-99
v-555z" />
    <glyph glyph-name="S" unicode="S" horiz-adv-x="1109" 
d="M940 1028h-114q-12 112 -69 173q-76 82 -211 82q-107 0 -178 -55q-88 -67 -88 -171q0 -97 86 -159q34 -25 65 -41t184 -87q222 -103 287 -185q78 -96 78 -229q0 -189 -148 -296q-115 -83 -283 -83q-225 0 -341 142q-82 100 -92 281h116q7 -136 69 -212q41 -50 108 -78
t145 -28q132 0 218 74q86 75 86 193q0 107 -78 180q-53 49 -204 118q-219 102 -279 144q-136 98 -136 258q0 155 122 252q109 87 271 87q174 0 275.5 -94.5t110.5 -265.5z" />
    <glyph glyph-name="T" unicode="T" horiz-adv-x="921" 
d="M49 1365h824v-102h-354v-1263h-116v1263h-354v102z" />
    <glyph glyph-name="U" unicode="U" horiz-adv-x="1246" 
d="M159 1365h116v-810q1 -154 6 -200q10 -110 64 -170q42 -48 116 -75.5t161 -27.5q119 0 209 49q63 33 94 86t40 138q4 45 5 200v810h116v-812q0 -168 -4 -218t-23 -103q-43 -121 -156 -188q-114 -67 -281 -67q-251 0 -376 148q-71 86 -82 210q-5 56 -5 218v812z" />
    <glyph glyph-name="V" unicode="V" horiz-adv-x="1117" 
d="M32 1365h123l409 -1228l402 1228h120l-469 -1376h-115z" />
    <glyph glyph-name="W" unicode="W" horiz-adv-x="1528" 
d="M43 1365h112l266 -1196l293 1196h101l294 -1196l268 1196h112l-319 -1376h-120l-285 1126l-286 -1126h-120z" />
    <glyph glyph-name="X" unicode="X" horiz-adv-x="1083" 
d="M68 1365h136l340 -557l340 557h136l-409 -649l429 -716h-132l-364 604l-363 -604h-133l429 716z" />
    <glyph glyph-name="Y" unicode="Y" horiz-adv-x="1014" 
d="M32 1365h137l340 -669l336 669h137l-420 -780l3 -585h-116l3 585z" />
    <glyph glyph-name="Z" unicode="Z" horiz-adv-x="1003" 
d="M106 1365h826v-79l-727 -1184h716v-102h-853v90l720 1173h-682v102z" />
    <glyph glyph-name="bracketleft" unicode="[" horiz-adv-x="557" 
d="M200 1365h272v-91h-165v-1581h165v-91h-272v1763z" />
    <glyph glyph-name="backslash" unicode="\" horiz-adv-x="1177" 
d="M1043 -273h-127l-782 1638h127z" />
    <glyph glyph-name="bracketright" unicode="]" horiz-adv-x="557" 
d="M358 -398h-272v91h165v1581h-165v91h272v-1763z" />
    <glyph glyph-name="asciicircum" unicode="^" 
d="M185 771h-118l375 597h140l374 -597h-119l-327 513z" />
    <glyph glyph-name="underscore" unicode="_" 
d="M0 -148h1024v-100h-1024v100z" />
    <glyph glyph-name="grave" unicode="`" 
d="M619 1144h-96l-270 263h170z" />
    <glyph glyph-name="a" unicode="a" horiz-adv-x="949" 
d="M244 727h-111q13 115 82 182q90 87 263 87q145 0 233 -69q53 -42 69 -99.5t16 -204.5v-355l-1 -78q0 -110 26 -190h-106q-18 58 -25 137q-89 -161 -286 -161q-126 0 -207 65q-97 77 -97 213q0 158 132.5 242.5t457.5 134.5v51q0 108 -37 152q-53 65 -178 65
q-201 0 -231 -172zM690 546q-215 -42 -318 -87q-160 -69 -160 -201q0 -83 55.5 -134t144.5 -51q156 0 232 123q46 75 46 240v110z" />
    <glyph glyph-name="b" unicode="b" horiz-adv-x="1012" 
d="M154 1371h106v-548q102 173 282 173q146 0 242 -107q129 -143 129 -400q0 -285 -156 -428q-93 -85 -226 -85q-91 0 -155 38.5t-116 124.5q1 -19 1 -28q0 -56 -18 -111h-109q19 59 20 280v1091zM544 899q-121 0 -197 -101q-89 -117 -89 -319q0 -191 92 -314
q68 -92 182 -92q103 0 165 73q105 122 105 342q0 188 -69 297.5t-189 113.5z" />
    <glyph glyph-name="c" unicode="c" horiz-adv-x="955" 
d="M845 656h-106q-14 96 -58 155q-64 88 -180 88q-122 0 -194 -93q-95 -123 -95 -322q0 -214 107 -333q72 -78 187 -78q103 0 165 66.5t74 188.5h110q-14 -147 -84 -235q-91 -117 -260 -117q-161 0 -270 105q-141 137 -141 401q0 278 156 421q101 93 248 93t236.5 -89
t104.5 -251z" />
    <glyph glyph-name="d" unicode="d" horiz-adv-x="1012" 
d="M858 1371v-1091q0 -222 20 -280h-109q-18 56 -18 111q0 8 1 28q-52 -86 -115.5 -124.5t-155.5 -38.5q-159 0 -257 110q-125 141 -125 390q0 247 116 397q94 123 256 123q194 0 281 -173v548h106zM486 899q-120 0 -185 -87q-91 -122 -91 -330q0 -202 91 -323
q65 -86 181 -86t181 86q91 121 91 325q0 207 -91 328q-64 84 -177 87z" />
    <glyph glyph-name="e" unicode="e" horiz-adv-x="975" 
d="M874 472h-662q4 -174 62 -271q77 -129 233 -129q84 0 139 36.5t100 123.5l103 -19q-90 -237 -341 -237q-186 0 -295 128q-113 131 -113 369q0 276 142 420q102 103 255 103q202 0 306 -176q71 -122 71 -310v-38zM760 561q-8 116 -48 197q-72 141 -219 141
q-115 0 -187.5 -88.5t-89.5 -249.5h544z" />
    <glyph glyph-name="f" unicode="f" horiz-adv-x="552" 
d="M284 969h245v-89h-238v-880h-117v880h-140v89h140v63q0 114 7 159t30 87q29 51 84.5 80.5t122.5 29.5q59 0 131 -25v-108q-56 36 -123 36q-95 0 -126 -83q-16 -41 -16 -159v-80z" />
    <glyph glyph-name="g" unicode="g" horiz-adv-x="958" 
d="M911 969v-85l-199 5q96 -83 96 -237q0 -143 -87 -218q-33 -27 -76 -44t-156 -47q-110 -30 -155.5 -56.5t-45.5 -61.5q0 -32 32.5 -43.5t155.5 -23.5q143 -14 201.5 -26t106.5 -37q130 -70 130 -223q0 -145 -129 -223q-114 -69 -298 -69q-199 0 -318 86q-102 72 -102 194
q0 88 49.5 146t158.5 96q-103 39 -103 112q0 49 39.5 84.5t134.5 71.5q-203 73 -203 281q0 170 122 262q87 65 219 65q69 0 140 -19zM485 889q-93 0 -157 -57q-73 -65 -73 -177q0 -101 62 -159q63 -59 160 -59q100 0 160 59.5t60 158.5q0 101 -59 166.5t-153 67.5zM487 46
q-139 0 -219 -40q-98 -49 -98 -142q0 -85 87 -135.5t232 -50.5q183 0 265 72q54 47 54 115q0 178 -321 181z" />
    <glyph glyph-name="h" unicode="h" horiz-adv-x="992" 
d="M154 1371h106v-517q56 75 121.5 108.5t157.5 33.5q179 0 259 -124q28 -44 37 -104.5t9 -211.5v-556h-106v563q0 113 -5.5 158t-22.5 79q-52 99 -182 99q-144 0 -218 -119q-50 -81 -50 -235v-545h-106v1371z" />
    <glyph glyph-name="i" unicode="i" horiz-adv-x="424" 
d="M154 969h117v-969h-117v969zM213 1381q38 0 64 -26.5t26 -65.5q0 -38 -25.5 -63.5t-64.5 -25.5t-65 25.5t-26 63.5q0 39 26 65.5t65 26.5z" />
    <glyph glyph-name="j" unicode="j" horiz-adv-x="501" 
d="M230 969h117v-903q0 -146 -9 -210.5t-36 -112.5q-74 -130 -292 -130q-20 0 -58 1v97q21 -2 38 -2q153 0 204 82q22 35 29 90.5t7 184.5v903zM288 1381q38 0 64 -26.5t26 -65.5q0 -38 -25.5 -63.5t-64.5 -25.5t-65 25.5t-26 63.5q0 39 26 65.5t65 26.5z" />
    <glyph glyph-name="k" unicode="k" horiz-adv-x="949" 
d="M690 969h131l-418 -432l448 -537h-151l-436 532zM154 1371h106v-1371h-106v1371z" />
    <glyph glyph-name="l" unicode="l" horiz-adv-x="424" 
d="M154 1371h117v-1371h-117v1371z" />
    <glyph glyph-name="m" unicode="m" horiz-adv-x="1518" 
d="M131 969h104q18 -52 19 -135q81 162 277 162q103 0 165.5 -41t98.5 -131q85 172 294 172q174 0 243 -117q24 -41 31 -90.5t7 -184.5v-604h-106v605q0 103 -5 140t-22 70q-47 84 -173 84q-142 0 -208 -114q-39 -68 -39 -203v-582h-109v582q0 170 -20 217q-42 100 -176 100
q-135 0 -204 -104q-48 -74 -48 -221v-574h-106v646v50q-1 135 -4.5 175.5t-18.5 97.5z" />
    <glyph glyph-name="n" unicode="n" horiz-adv-x="1005" 
d="M131 969h104q19 -55 19 -146q96 173 298 173q105 0 178.5 -43t102.5 -121q16 -46 20 -89t4 -187v-556h-106v563q0 115 -4.5 158t-21.5 79q-46 100 -182 100q-147 0 -228 -119q-55 -82 -55 -225v-556h-106v645q0 176 -3 218t-20 106z" />
    <glyph glyph-name="o" unicode="o" horiz-adv-x="1010" 
d="M505 996q168 0 277 -122q128 -145 128 -389q0 -243 -128 -388q-108 -121 -276 -121q-170 0 -278 121q-128 145 -128 395q0 238 128 382q108 120 277 122zM506 899q-126 0 -202 -99q-92 -120 -92 -310q0 -199 92 -319q76 -98 202 -98t201 98q92 120 92 314q0 196 -92 315
q-76 97 -201 99z" />
    <glyph glyph-name="p" unicode="p" horiz-adv-x="1012" 
d="M154 -404v1091q-1 223 -20 282h110q15 -48 18 -151q41 76 86 113q79 66 193 66q144 0 237 -104q135 -150 135 -413q0 -258 -126 -402q-89 -102 -238 -102q-186 0 -286 165v-545h-109zM539 901q-116 0 -187 -95q-94 -126 -94 -320q0 -195 88 -313q76 -100 193 -100
q116 0 176 82q87 118 87 324q0 192 -71 306t-192 116z" />
    <glyph glyph-name="q" unicode="q" horiz-adv-x="1012" 
d="M749 -404v545q-101 -165 -276 -165q-148 0 -245 105q-129 138 -129 392q0 265 139 417q96 106 241 106q96 0 159.5 -41t111.5 -135q1 96 18 149h110q-20 -58 -20 -282v-1091h-109zM480 899q-110 0 -176 -90q-94 -128 -94 -336q0 -202 88 -317q64 -83 171 -83
q120 0 196 100q89 116 89 312q0 197 -91 321q-67 91 -183 93z" />
    <glyph glyph-name="r" unicode="r" horiz-adv-x="635" 
d="M139 969h101q17 -77 17 -148q0 -20 -3 -62q51 124 109 180.5t136 56.5q65 0 129 -34v-106q-81 36 -125 36q-55 0 -106.5 -43t-86.5 -118q-47 -102 -47 -302v-429h-109v623q0 238 -15 346z" />
    <glyph glyph-name="s" unicode="s" horiz-adv-x="865" 
d="M757 711h-104q-10 92 -54 134q-55 54 -159 54q-91 0 -146.5 -44.5t-55.5 -117.5q0 -63 45 -98t177 -75q119 -35 173.5 -60t84.5 -59q59 -64 59 -172q0 -128 -82 -208q-91 -89 -255 -89q-166 0 -255.5 81.5t-89.5 233.5h105q20 -219 240 -219q96 0 157 47q67 51 67 143
q0 83 -60 125q-24 18 -54.5 29t-166.5 54q-147 46 -200 105q-56 64 -56 159q0 129 102 200q89 62 213 62q84 0 154.5 -29.5t108.5 -81.5q47 -63 52 -174z" />
    <glyph glyph-name="t" unicode="t" horiz-adv-x="612" 
d="M310 969h242v-89h-243l-10 -530l-2 -104q0 -95 15 -126q22 -46 97 -46q69 0 139 33v-100q-79 -26 -157 -26q-110 0 -158 45.5t-48 148.5q0 34 3 103q3 55 3 77l12 525h-145v89h146l5 280h106z" />
    <glyph glyph-name="u" unicode="u" horiz-adv-x="979" 
d="M149 969h106v-605q0 -153 33 -206q54 -85 177 -85q135 0 209 115q46 72 46 223v558h106v-675q0 -169 3 -207t19 -87h-107q-21 62 -21 138q-42 -86 -101.5 -124t-153.5 -38q-117 0 -197 58q-94 66 -112 184q-7 45 -7 151v600z" />
    <glyph glyph-name="v" unicode="v" horiz-adv-x="835" 
d="M21 969h112l286 -852l286 852h110l-343 -983h-108z" />
    <glyph glyph-name="w" unicode="w" horiz-adv-x="1293" 
d="M32 969h113l217 -796l236 796h97l236 -796l217 796h113l-279 -983h-97l-238 822l-239 -822h-97z" />
    <glyph glyph-name="x" unicode="x" horiz-adv-x="863" 
d="M67 969h123l243 -371l246 371h132l-312 -454l348 -515h-128l-286 428l-289 -428h-128l352 515z" />
    <glyph glyph-name="y" unicode="y" horiz-adv-x="855" 
d="M33 969h115l279 -831l289 831h113l-317 -887q-66 -190 -92 -250t-64 -111q-95 -129 -268 -129q-15 0 -34 1v95q127 -2 188 57q34 34 57.5 82t68.5 174z" />
    <glyph glyph-name="z" unicode="z" horiz-adv-x="796" 
d="M84 969h675v-77l-589 -803h572v-89h-698v85l581 795h-541v89z" />
    <glyph glyph-name="braceleft" unicode="{" horiz-adv-x="557" 
d="M200 483q65 -39 88.5 -90t23.5 -150v-347q0 -132 38 -176.5t151 -45.5v-84h-21q-152 0 -211 72t-59 257v324q0 93 -26 138.5t-90 64.5v74q64 20 90 65t26 138v324q0 128 23 192.5t80 99.5q65 38 188 37v-83q-114 -2 -151.5 -46t-37.5 -176v-348q0 -99 -24 -150t-88 -90z
" />
    <glyph glyph-name="bar" unicode="|" 
d="M459 1365h106v-1706h-106v1706z" />
    <glyph glyph-name="braceright" unicode="}" horiz-adv-x="557" 
d="M357 483q-65 40 -88.5 91t-23.5 149v348q0 132 -37.5 176t-151.5 46v83q137 1 204 -47q48 -37 67.5 -99.5t19.5 -182.5v-324q0 -93 25.5 -138t90.5 -65v-74q-65 -20 -90.5 -65t-25.5 -138v-324q0 -106 -13 -161t-47 -95q-63 -73 -209 -73h-22v84q113 1 151 45.5t38 176.5
v348q0 98 23.5 149t88.5 90z" />
    <glyph glyph-name="asciitilde" unicode="~" horiz-adv-x="1365" 
d="M260 1209l-67 43q37 73 76 120q79 98 194 98q78 0 235 -79q89 -45 128.5 -58.5t78.5 -13.5q61 0 105 34t95 120l68 -40q-111 -215 -279 -215q-46 0 -98.5 19t-185.5 85q-96 47 -154 47t-103 -37t-93 -123z" />
    <glyph glyph-name="Adieresis" unicode="&#xc4;" horiz-adv-x="1134" 
d="M522 1377h90l473 -1377h-122l-134 388h-524l-135 -388h-121zM795 490l-228 720l-229 -720h457zM388 1732q42 0 72.5 -30.5t30.5 -74.5q0 -43 -30.5 -73.5t-73.5 -30.5q-44 0 -74.5 30.5t-30.5 73.5q0 44 30.5 74.5t75.5 30.5zM748 1732q42 0 72.5 -30.5t30.5 -74.5
q0 -43 -30.5 -73.5t-73.5 -30.5q-44 0 -74.5 30.5t-30.5 73.5q0 44 30.5 74.5t75.5 30.5z" />
    <glyph glyph-name="Aring" unicode="&#xc5;" horiz-adv-x="1134" 
d="M522 1377h90l473 -1377h-122l-134 388h-524l-135 -388h-121zM795 490l-228 720l-229 -720h457zM569 1828q75 0 128.5 -54t53.5 -130t-54 -130t-130 -54t-130 54t-54 130q0 77 54 130.5t132 53.5zM568 1746q-43 0 -73 -29.5t-30 -72.5q0 -42 30 -71.5t72 -29.5t72 29.5
t30 71.5t-29 71.5t-72 30.5z" />
    <glyph glyph-name="Ccedilla" unicode="&#xc7;" horiz-adv-x="1233" 
d="M675 -23l-50 -121q186 -18 186 -159q0 -77 -56 -123t-151 -46q-69 0 -146 26v77q64 -18 104 -18q54 0 86.5 26t32.5 70q0 48 -37.5 69t-129.5 23l75 180q-91 19 -143.5 41.5t-101.5 63.5q-111 93 -170 246q-58 151 -58 351q0 392 216 585q134 120 329 120
q185 0 302.5 -99.5t145.5 -279.5h-115q-66 274 -332 274q-173 0 -276 -121q-143 -170 -143 -481q0 -305 145 -479q100 -120 273 -120q154 0 246 94.5t113 272.5h113q-22 -222 -142 -346t-316 -126z" />
    <glyph glyph-name="Eacute" unicode="&#xc9;" horiz-adv-x="1004" 
d="M296 758h558v-102h-558v-554h608v-102h-724v1365h715v-102h-599v-505zM411 1496l264 262h170l-315 -262h-119z" />
    <glyph glyph-name="Ntilde" unicode="&#xd1;" horiz-adv-x="1285" 
d="M180 1365h129l688 -1195v1195h108v-1365h-135l-680 1191v-1191h-110v1365zM409 1514l-79 34q15 64 35 103q47 89 146 89q68 0 156 -58q64 -43 88.5 -54.5t51.5 -11.5q83 0 99 131l78 -35q-8 -66 -29 -105q-22 -42 -63.5 -67.5t-87.5 -25.5q-38 0 -75 15.5t-102 59.5
q-72 48 -115 48q-75 0 -103 -123z" />
    <glyph glyph-name="Odieresis" unicode="&#xd6;" horiz-adv-x="1305" 
d="M653 1388q154 0 278 -90q136 -99 204 -287q54 -148 54 -328q0 -312 -156 -516q-75 -98 -184 -148q-91 -42 -195 -42q-238 0 -382 190q-156 204 -156 525q0 204 74 369q79 178 224 263q105 62 239 64zM653 1283q-183 0 -293 -166q-117 -177 -117 -427q0 -264 117 -442
q110 -166 293 -166t292 166q117 179 117 435q0 260 -117 434q-110 163 -292 166zM474 1732q42 0 72.5 -30.5t30.5 -74.5q0 -43 -30.5 -73.5t-73.5 -30.5q-44 0 -74.5 30.5t-30.5 73.5q0 44 30.5 74.5t75.5 30.5zM834 1732q42 0 72.5 -30.5t30.5 -74.5q0 -43 -30.5 -73.5
t-73.5 -30.5q-44 0 -74.5 30.5t-30.5 73.5q0 44 30.5 74.5t75.5 30.5z" />
    <glyph glyph-name="Udieresis" unicode="&#xdc;" horiz-adv-x="1246" 
d="M159 1365h116v-810q1 -154 6 -200q10 -110 64 -170q42 -48 116 -75.5t161 -27.5q119 0 209 49q63 33 94 86t40 138q4 45 5 200v810h116v-812q0 -168 -4 -218t-23 -103q-43 -121 -156 -188q-114 -67 -281 -67q-251 0 -376 148q-71 86 -82 210q-5 56 -5 218v812zM444 1732
q42 0 72.5 -30.5t30.5 -74.5q0 -43 -30.5 -73.5t-73.5 -30.5q-44 0 -74.5 30.5t-30.5 73.5q0 44 30.5 74.5t75.5 30.5zM804 1732q42 0 72.5 -30.5t30.5 -74.5q0 -43 -30.5 -73.5t-73.5 -30.5q-44 0 -74.5 30.5t-30.5 73.5q0 44 30.5 74.5t75.5 30.5z" />
    <glyph glyph-name="aacute" unicode="&#xe1;" horiz-adv-x="949" 
d="M244 727h-111q13 115 82 182q90 87 263 87q145 0 233 -69q53 -42 69 -99.5t16 -204.5v-355l-1 -78q0 -110 26 -190h-106q-18 58 -25 137q-89 -161 -286 -161q-126 0 -207 65q-97 77 -97 213q0 158 132.5 242.5t457.5 134.5v51q0 108 -37 152q-53 65 -178 65
q-201 0 -231 -172zM690 546q-215 -42 -318 -87q-160 -69 -160 -201q0 -83 55.5 -134t144.5 -51q156 0 232 123q46 75 46 240v110zM370 1144l196 263h170l-270 -263h-96z" />
    <glyph glyph-name="agrave" unicode="&#xe0;" horiz-adv-x="949" 
d="M244 727h-111q13 115 82 182q90 87 263 87q145 0 233 -69q53 -42 69 -99.5t16 -204.5v-355l-1 -78q0 -110 26 -190h-106q-18 58 -25 137q-89 -161 -286 -161q-126 0 -207 65q-97 77 -97 213q0 158 132.5 242.5t457.5 134.5v51q0 108 -37 152q-53 65 -178 65
q-201 0 -231 -172zM690 546q-215 -42 -318 -87q-160 -69 -160 -201q0 -83 55.5 -134t144.5 -51q156 0 232 123q46 75 46 240v110zM595 1144h-96l-270 263h170z" />
    <glyph glyph-name="acircumflex" unicode="&#xe2;" horiz-adv-x="949" 
d="M244 727h-111q13 115 82 182q90 87 263 87q145 0 233 -69q53 -42 69 -99.5t16 -204.5v-355l-1 -78q0 -110 26 -190h-106q-18 58 -25 137q-89 -161 -286 -161q-126 0 -207 65q-97 77 -97 213q0 158 132.5 242.5t457.5 134.5v51q0 108 -37 152q-53 65 -178 65
q-201 0 -231 -172zM690 546q-215 -42 -318 -87q-160 -69 -160 -201q0 -83 55.5 -134t144.5 -51q156 0 232 123q46 75 46 240v110zM181 1145l226 279h152l227 -279h-110l-193 199l-193 -199h-109z" />
    <glyph glyph-name="adieresis" unicode="&#xe4;" horiz-adv-x="949" 
d="M244 727h-111q13 115 82 182q90 87 263 87q145 0 233 -69q53 -42 69 -99.5t16 -204.5v-355l-1 -78q0 -110 26 -190h-106q-18 58 -25 137q-89 -161 -286 -161q-126 0 -207 65q-97 77 -97 213q0 158 132.5 242.5t457.5 134.5v51q0 108 -37 152q-53 65 -178 65
q-201 0 -231 -172zM690 546q-215 -42 -318 -87q-160 -69 -160 -201q0 -83 55.5 -134t144.5 -51q156 0 232 123q46 75 46 240v110zM308 1378q40 0 68 -28.5t28 -68.5q0 -41 -28.5 -69.5t-68.5 -28.5q-41 0 -69.5 28.5t-28.5 68.5q0 42 28.5 70t70.5 28zM656 1378
q40 0 68 -28.5t28 -68.5q0 -41 -28.5 -69.5t-68.5 -28.5q-41 0 -69.5 28.5t-28.5 68.5q0 42 28.5 70t70.5 28z" />
    <glyph glyph-name="atilde" unicode="&#xe3;" horiz-adv-x="949" 
d="M244 727h-111q13 115 82 182q90 87 263 87q145 0 233 -69q53 -42 69 -99.5t16 -204.5v-355l-1 -78q0 -110 26 -190h-106q-18 58 -25 137q-89 -161 -286 -161q-126 0 -207 65q-97 77 -97 213q0 158 132.5 242.5t457.5 134.5v51q0 108 -37 152q-53 65 -178 65
q-201 0 -231 -172zM690 546q-215 -42 -318 -87q-160 -69 -160 -201q0 -83 55.5 -134t144.5 -51q156 0 232 123q46 75 46 240v110zM254 1162l-76 17q35 211 170 211q61 0 139 -60q87 -66 126 -66q72 0 89 131l80 -18q-10 -88 -45 -144q-46 -73 -122 -73q-64 0 -151 66
q-81 61 -118 61q-68 0 -92 -125z" />
    <glyph glyph-name="aring" unicode="&#xe5;" horiz-adv-x="949" 
d="M244 727h-111q13 115 82 182q90 87 263 87q145 0 233 -69q53 -42 69 -99.5t16 -204.5v-355l-1 -78q0 -110 26 -190h-106q-18 58 -25 137q-89 -161 -286 -161q-126 0 -207 65q-97 77 -97 213q0 158 132.5 242.5t457.5 134.5v51q0 108 -37 152q-53 65 -178 65
q-201 0 -231 -172zM690 546q-215 -42 -318 -87q-160 -69 -160 -201q0 -83 55.5 -134t144.5 -51q156 0 232 123q46 75 46 240v110zM484 1480q74 0 127.5 -54.5t53.5 -129.5q0 -76 -54 -130t-130 -54t-130 54t-54 129q0 78 54 131.5t133 53.5zM482 1398q-43 0 -73 -29.5
t-30 -72.5q0 -42 30 -72t72 -30t72 30t30 72t-29 71.5t-72 30.5z" />
    <glyph glyph-name="ccedilla" unicode="&#xe7;" horiz-adv-x="955" 
d="M528 -25l-43 -96q172 -21 172 -142q0 -71 -52.5 -114.5t-139.5 -43.5q-73 0 -143 27v71q67 -18 104 -18q51 0 80.5 24t29.5 67q0 44 -36 65t-122 26l69 139q-99 20 -171 71q-77 54 -119 145q-57 120 -57 285q0 279 156 422q101 93 249 93q147 0 236 -89t104 -251h-105
q-15 96 -59 155q-64 88 -180 88q-121 0 -194 -93q-95 -122 -95 -323q0 -217 108 -333q73 -78 186 -78q102 0 165 67.5t75 188.5h110q-14 -174 -120 -275q-40 -37 -80 -52t-128 -26z" />
    <glyph glyph-name="eacute" unicode="&#xe9;" horiz-adv-x="975" 
d="M874 472h-662q4 -174 62 -271q77 -129 233 -129q84 0 139 36.5t100 123.5l103 -19q-90 -237 -341 -237q-186 0 -295 128q-113 131 -113 369q0 276 142 420q102 103 255 103q202 0 306 -176q71 -122 71 -310v-38zM760 561q-8 116 -48 197q-72 141 -219 141
q-115 0 -187.5 -88.5t-89.5 -249.5h544zM392 1144l196 263h170l-270 -263h-96z" />
    <glyph glyph-name="egrave" unicode="&#xe8;" horiz-adv-x="975" 
d="M874 472h-662q4 -174 62 -271q77 -129 233 -129q84 0 139 36.5t100 123.5l103 -19q-90 -237 -341 -237q-186 0 -295 128q-113 131 -113 369q0 276 142 420q102 103 255 103q202 0 306 -176q71 -122 71 -310v-38zM760 561q-8 116 -48 197q-72 141 -219 141
q-115 0 -187.5 -88.5t-89.5 -249.5h544zM615 1144h-96l-270 263h170z" />
    <glyph glyph-name="ecircumflex" unicode="&#xea;" horiz-adv-x="975" 
d="M874 472h-662q4 -174 62 -271q77 -129 233 -129q84 0 139 36.5t100 123.5l103 -19q-90 -237 -341 -237q-186 0 -295 128q-113 131 -113 369q0 276 142 420q102 103 255 103q202 0 306 -176q71 -122 71 -310v-38zM760 561q-8 116 -48 197q-72 141 -219 141
q-115 0 -187.5 -88.5t-89.5 -249.5h544zM205 1145l226 279h152l227 -279h-110l-193 199l-193 -199h-109z" />
    <glyph glyph-name="edieresis" unicode="&#xeb;" horiz-adv-x="975" 
d="M874 472h-662q4 -174 62 -271q77 -129 233 -129q84 0 139 36.5t100 123.5l103 -19q-90 -237 -341 -237q-186 0 -295 128q-113 131 -113 369q0 276 142 420q102 103 255 103q202 0 306 -176q71 -122 71 -310v-38zM760 561q-8 116 -48 197q-72 141 -219 141
q-115 0 -187.5 -88.5t-89.5 -249.5h544zM335 1378q40 0 68 -28.5t28 -68.5q0 -41 -28.5 -69.5t-68.5 -28.5q-41 0 -69.5 28.5t-28.5 68.5q0 42 28.5 70t70.5 28zM683 1378q40 0 68 -28.5t28 -68.5q0 -41 -28.5 -69.5t-68.5 -28.5q-41 0 -69.5 28.5t-28.5 68.5q0 42 28.5 70
t70.5 28z" />
    <glyph glyph-name="iacute" unicode="&#xed;" horiz-adv-x="424" 
d="M154 969h117v-969h-117v969zM138 1144l148 263h164l-223 -263h-89z" />
    <glyph glyph-name="igrave" unicode="&#xec;" horiz-adv-x="424" 
d="M154 969h117v-969h-117v969zM287 1144h-90l-222 263h163z" />
    <glyph glyph-name="icircumflex" unicode="&#xee;" horiz-adv-x="424" 
d="M154 969h117v-969h-117v969zM-42 1145l179 279h152l178 -279h-102l-153 199l-151 -199h-103z" />
    <glyph glyph-name="idieresis" unicode="&#xef;" horiz-adv-x="424" 
d="M153 969h117v-969h-117v969zM83 1377q39 0 67 -28.5t28 -67.5q0 -41 -28 -69t-68 -28q-41 0 -69 28t-28 68q0 41 28.5 69t69.5 28zM344 1377q39 0 67 -28.5t28 -67.5q0 -41 -28 -69t-68 -28t-68.5 28t-28.5 68q0 41 28.5 69t69.5 28z" />
    <glyph glyph-name="ntilde" unicode="&#xf1;" horiz-adv-x="1005" 
d="M131 969h104q19 -55 19 -146q96 173 298 173q105 0 178.5 -43t102.5 -121q16 -46 20 -89t4 -187v-556h-106v563q0 115 -4.5 158t-21.5 79q-46 100 -182 100q-147 0 -228 -119q-55 -82 -55 -225v-556h-106v645q0 176 -3 218t-20 106zM256 1162l-76 17q35 211 170 211
q61 0 139 -60q87 -66 126 -66q72 0 89 131l80 -18q-10 -88 -45 -144q-46 -73 -122 -73q-64 0 -151 66q-81 61 -118 61q-68 0 -92 -125z" />
    <glyph glyph-name="oacute" unicode="&#xf3;" horiz-adv-x="1010" 
d="M505 996q168 0 277 -122q128 -145 128 -389q0 -243 -128 -388q-108 -121 -276 -121q-170 0 -278 121q-128 145 -128 395q0 238 128 382q108 120 277 122zM506 899q-126 0 -202 -99q-92 -120 -92 -310q0 -199 92 -319q76 -98 202 -98t201 98q92 120 92 314q0 196 -92 315
q-76 97 -201 99zM403 1144l196 263h170l-270 -263h-96z" />
    <glyph glyph-name="ograve" unicode="&#xf2;" horiz-adv-x="1010" 
d="M505 996q168 0 277 -122q128 -145 128 -389q0 -243 -128 -388q-108 -121 -276 -121q-170 0 -278 121q-128 145 -128 395q0 238 128 382q108 120 277 122zM506 899q-126 0 -202 -99q-92 -120 -92 -310q0 -199 92 -319q76 -98 202 -98t201 98q92 120 92 314q0 196 -92 315
q-76 97 -201 99zM612 1144h-96l-270 263h170z" />
    <glyph glyph-name="ocircumflex" unicode="&#xf4;" horiz-adv-x="1010" 
d="M505 996q168 0 277 -122q128 -145 128 -389q0 -243 -128 -388q-108 -121 -276 -121q-170 0 -278 121q-128 145 -128 395q0 238 128 382q108 120 277 122zM506 899q-126 0 -202 -99q-92 -120 -92 -310q0 -199 92 -319q76 -98 202 -98t201 98q92 120 92 314q0 196 -92 315
q-76 97 -201 99zM203 1145l226 279h152l227 -279h-110l-193 199l-193 -199h-109z" />
    <glyph glyph-name="odieresis" unicode="&#xf6;" horiz-adv-x="1010" 
d="M505 996q168 0 277 -122q128 -145 128 -389q0 -243 -128 -388q-108 -121 -276 -121q-170 0 -278 121q-128 145 -128 395q0 238 128 382q108 120 277 122zM506 899q-126 0 -202 -99q-92 -120 -92 -310q0 -199 92 -319q76 -98 202 -98t201 98q92 120 92 314q0 196 -92 315
q-76 97 -201 99zM333 1378q40 0 68 -28.5t28 -68.5q0 -41 -28.5 -69.5t-68.5 -28.5q-41 0 -69.5 28.5t-28.5 68.5q0 42 28.5 70t70.5 28zM681 1378q40 0 68 -28.5t28 -68.5q0 -41 -28.5 -69.5t-68.5 -28.5q-41 0 -69.5 28.5t-28.5 68.5q0 42 28.5 70t70.5 28z" />
    <glyph glyph-name="otilde" unicode="&#xf5;" horiz-adv-x="1010" 
d="M505 996q168 0 277 -122q128 -145 128 -389q0 -243 -128 -388q-108 -121 -276 -121q-170 0 -278 121q-128 145 -128 395q0 238 128 382q108 120 277 122zM506 899q-126 0 -202 -99q-92 -120 -92 -310q0 -199 92 -319q76 -98 202 -98t201 98q92 120 92 314q0 196 -92 315
q-76 97 -201 99zM295 1162l-76 17q35 211 170 211q61 0 139 -60q87 -66 126 -66q72 0 89 131l80 -18q-10 -88 -45 -144q-46 -73 -122 -73q-64 0 -151 66q-81 61 -118 61q-68 0 -92 -125z" />
    <glyph glyph-name="uacute" unicode="&#xfa;" horiz-adv-x="979" 
d="M149 969h106v-605q0 -153 33 -206q54 -85 177 -85q135 0 209 115q46 72 46 223v558h106v-675q0 -169 3 -207t19 -87h-107q-21 62 -21 138q-42 -86 -101.5 -124t-153.5 -38q-117 0 -197 58q-94 66 -112 184q-7 45 -7 151v600zM376 1144l196 263h170l-270 -263h-96z" />
    <glyph glyph-name="ugrave" unicode="&#xf9;" horiz-adv-x="979" 
d="M149 969h106v-605q0 -153 33 -206q54 -85 177 -85q135 0 209 115q46 72 46 223v558h106v-675q0 -169 3 -207t19 -87h-107q-21 62 -21 138q-42 -86 -101.5 -124t-153.5 -38q-117 0 -197 58q-94 66 -112 184q-7 45 -7 151v600zM599 1144h-96l-270 263h170z" />
    <glyph glyph-name="ucircumflex" unicode="&#xfb;" horiz-adv-x="979" 
d="M149 969h106v-605q0 -153 33 -206q54 -85 177 -85q135 0 209 115q46 72 46 223v558h106v-675q0 -169 3 -207t19 -87h-107q-21 62 -21 138q-42 -86 -101.5 -124t-153.5 -38q-117 0 -197 58q-94 66 -112 184q-7 45 -7 151v600zM188 1145l226 279h152l227 -279h-110
l-193 199l-193 -199h-109z" />
    <glyph glyph-name="udieresis" unicode="&#xfc;" horiz-adv-x="979" 
d="M149 969h106v-605q0 -153 33 -206q54 -85 177 -85q135 0 209 115q46 72 46 223v558h106v-675q0 -169 3 -207t19 -87h-107q-21 62 -21 138q-42 -86 -101.5 -124t-153.5 -38q-117 0 -197 58q-94 66 -112 184q-7 45 -7 151v600zM316 1378q40 0 68 -28.5t28 -68.5
q0 -41 -28.5 -69.5t-68.5 -28.5q-41 0 -69.5 28.5t-28.5 68.5q0 42 28.5 70t70.5 28zM664 1378q40 0 68 -28.5t28 -68.5q0 -41 -28.5 -69.5t-68.5 -28.5q-41 0 -69.5 28.5t-28.5 68.5q0 42 28.5 70t70.5 28z" />
    <glyph glyph-name="dagger" unicode="&#x2020;" 
d="M463 1331h106v-364h388v-95h-388v-1145h-106v1145h-396v95h396v364z" />
    <glyph glyph-name="degree" unicode="&#xb0;" 
d="M512 1388q116 0 199 -80t83 -194t-82 -195q-83 -81 -199 -81q-118 0 -201 81q-82 81 -82 198q0 112 82 190q84 80 200 81zM512 1313q-84 0 -144 -59q-59 -57 -59 -138q0 -86 59 -144q60 -59 145 -59q83 0 143 59q59 59 59 141q0 83 -58.5 141t-144.5 59z" />
    <glyph glyph-name="cent" unicode="&#xa2;" horiz-adv-x="1065" 
d="M575 1098v-830q96 6 152 71.5t69 186.5h111q-6 -154 -97.5 -251.5t-234.5 -103.5v-216h-68v220q-90 13 -154 61q-178 135 -178 437q0 210 87.5 346.5t244.5 171.5v208h68v-204q146 -5 230.5 -95t89.5 -246h-109q-9 238 -211 244zM507 1091q-75 -23 -120 -80
q-103 -130 -103 -332q0 -231 123 -353q35 -35 100 -52v817z" />
    <glyph glyph-name="sterling" unicode="&#xa3;" horiz-adv-x="1065" 
d="M455 743h303v-100h-319q-67 -404 -144 -550q89 14 194 14q30 0 76 -1q90 -1 107 -1q73 0 105 8t55 32q38 39 43 123h107q2 -129 -77 -204q-43 -41 -95.5 -52.5t-192.5 -11.5h-471q90 154 176 643h-206v100h224q41 264 72 391q36 148 105 203q64 51 161 51q149 0 203 -104
q24 -46 29 -151h-108q-6 81 -24 107q-31 47 -102 47q-68 0 -101 -41.5t-59 -159.5q-21 -93 -61 -343z" />
    <glyph glyph-name="section" unicode="&#xa7;" 
d="M858 1023h-111q-8 102 -47 155q-58 77 -184 77q-96 0 -157 -49q-68 -56 -68 -149q0 -84 73 -142q32 -25 198 -119q183 -104 240 -157q64 -61 64 -159q0 -83 -42.5 -143t-136.5 -112q75 -58 106.5 -115.5t31.5 -134.5q0 -121 -72 -207q-92 -108 -279 -108q-340 0 -352 336
h109q9 -106 43 -154q62 -89 200 -89q99 0 157 41q86 61 86 178q0 98 -89 164q-46 33 -194 121q-190 113 -235 164q-57 65 -57 149q0 145 191 242q-151 95 -151 240q0 119 86 204q94 92 250 92q154 0 244 -86.5t96 -238.5zM419 757q-168 -72 -168 -186q0 -79 103 -146
q113 -75 249 -147q71 30 112 82t41 113q0 78 -69 125q-102 69 -268 159z" />
    <glyph glyph-name="bullet" unicode="&#x2022;" horiz-adv-x="1365" 
d="M689 978q113 0 196 -83q84 -83 84 -201t-83 -201t-201 -83q-116 0 -199 82q-85 84 -85 202q0 121 84 202q86 82 204 82z" />
    <glyph glyph-name="paragraph" unicode="&#xb6;" horiz-adv-x="1134" 
d="M450 -206v846h-33q-116 0 -210 53q-78 45 -123 126t-45 179q0 100 46 183t127 128q99 56 306 56h473v-90h-114v-1481h-100v1481h-228v-1481h-99z" />
    <glyph glyph-name="germandbls" unicode="&#xdf;" horiz-adv-x="1009" 
d="M148 0v874q0 165 8.5 231t36.5 118q38 73 115 113.5t177 40.5q147 0 238 -83q98 -90 98 -236q0 -221 -246 -287q334 -57 334 -385q0 -189 -113 -302q-98 -98 -236 -98q-66 0 -146 32v101q72 -36 148 -36q102 0 166 80q69 87 69 225q0 112 -45.5 183t-143.5 112
q-99 41 -230 43v92q28 -1 42 -1q124 0 198 52q91 64 91 183q0 108 -65 171q-60 58 -162 58q-152 0 -199 -115q-19 -48 -24 -95.5t-5 -195.5v-875h-106z" />
    <glyph glyph-name="registered" unicode="&#xae;" horiz-adv-x="1643" 
d="M830 1391q189 0 360 -104q170 -105 260 -281q77 -151 77 -320q0 -199 -104 -368q-104 -170 -281 -260q-151 -77 -320 -77q-199 0 -369 104q-169 104 -260 281q-77 151 -77 319q0 200 103 370q102 167 282 259q150 77 329 77zM829 1317q-263 0 -446 -183
q-184 -185 -184 -451q0 -176 92 -329q92 -152 248 -233q133 -69 283 -69q257 0 439 184q88 90 136 207q47 117 47 242q0 178 -92 332q-90 150 -249 232q-123 64 -274 68zM589 1090h139q159 0 232 -22q69 -20 109.5 -76t40.5 -130q0 -164 -181 -221l239 -370h-111l-231 356
h-147v-356h-90v819zM679 704h52q133 0 183 16q99 32 99 143q0 101 -85 132q-48 18 -195 18h-54v-309z" />
    <glyph glyph-name="copyright" unicode="&#xa9;" horiz-adv-x="1643" 
d="M830 1391q189 0 360 -104q170 -105 260 -281q77 -151 77 -320q0 -199 -104 -368q-104 -170 -281 -260q-151 -77 -320 -77q-199 0 -369 104q-169 104 -260 281q-77 151 -77 319q0 200 103 370q102 167 282 259q150 77 329 77zM829 1317q-263 0 -446 -183
q-184 -185 -184 -451q0 -176 92 -329q92 -152 248 -233q133 -69 283 -69q257 0 439 184q88 90 136 207q47 117 47 242q0 178 -92 332q-90 150 -249 232q-123 64 -274 68zM1136 878h-88q-40 161 -203 161q-113 0 -180 -85q-75 -96 -75 -259q0 -161 68.5 -253.5t186.5 -92.5
q193 0 218 216h88q-12 -113 -60 -180q-82 -114 -241 -114q-156 0 -255 108q-102 111 -102 314q0 224 124 338q93 86 229 86q122 0 197 -62t93 -177z" />
    <glyph glyph-name="trademark" unicode="&#x2122;" horiz-adv-x="1563" 
d="M23 1365h535v-77h-222v-742h-90v742h-223v77zM686 1365h133l254 -705l253 705h132v-819h-89v697l-254 -697h-85l-254 697v-697h-90v819z" />
    <glyph glyph-name="acute" unicode="&#xb4;" 
d="M458 1144l196 263h170l-270 -263h-96z" />
    <glyph glyph-name="dieresis" unicode="&#xa8;" 
d="M339 1378q40 0 68 -28.5t28 -68.5q0 -41 -28.5 -69.5t-68.5 -28.5q-41 0 -69.5 28.5t-28.5 68.5q0 42 28.5 70t70.5 28zM687 1378q40 0 68 -28.5t28 -68.5q0 -41 -28.5 -69.5t-68.5 -28.5q-41 0 -69.5 28.5t-28.5 68.5q0 42 28.5 70t70.5 28z" />
    <glyph glyph-name="notequal" unicode="&#x2260;" 
d="M565 885l111 234l79 -25l-99 -209h300v-94h-344l-98 -209h442v-94h-486l-117 -249l-79 26l104 223h-310v94h354l98 209h-452v94h497z" />
    <glyph glyph-name="AE" unicode="&#xc6;" horiz-adv-x="1702" 
d="M819 1365h783v-102h-594v-504h547v-103h-547v-554h594v-102h-715v390h-488l-217 -390h-134zM887 493v773l-431 -773h431z" />
    <glyph glyph-name="Oslash" unicode="&#xd8;" horiz-adv-x="1305" 
d="M987 1260l71 105h101l-114 -170q144 -194 144 -493q0 -342 -173 -550q-69 -83 -166 -129t-205 -46q-188 0 -329 129l-71 -106h-100l113 170q-143 200 -143 492q0 342 173 551q69 84 166 129.5t206 45.5q182 0 327 -128zM923 1164q-111 119 -262 119q-119 0 -215 -75
q-103 -81 -158 -242q-46 -136 -46 -308q0 -220 87 -383zM380 202q110 -121 264 -121q187 0 302.5 173.5t115.5 455.5q0 219 -87 380z" />
    <glyph glyph-name="infinity" unicode="&#x221e;" horiz-adv-x="1365" 
d="M685 624q-157 -234 -345 -234q-155 0 -239 111q-62 82 -62 199q0 165 124 250q79 54 179 54q185 0 339 -233q82 123 163.5 178t182.5 55q157 0 240 -114q60 -82 60 -195q0 -146 -95 -231q-84 -74 -204 -74q-191 0 -343 234zM737 697q73 -115 138.5 -165t143.5 -50
q94 0 153 69q49 59 49 146q0 113 -78 172q-56 43 -126 43q-119 0 -217 -125q-13 -16 -38.5 -52.5t-24.5 -37.5zM629 696q-75 118 -139.5 167t-142.5 49q-95 0 -153 -69q-49 -59 -49 -146q0 -114 78 -173q56 -43 126 -43q118 0 217 125q13 17 38.5 53t24.5 37z" />
    <glyph glyph-name="plusminus" unicode="&#xb1;" horiz-adv-x="1065" 
d="M575 728h379v-78h-379v-380h-83v380h-380v78h380v393h83v-393zM112 161h842v-83h-842v83z" />
    <glyph glyph-name="lessequal" unicode="&#x2264;" 
d="M955 1203v-103l-772 -337l772 -337v-102l-887 391v95zM955 263v-99h-887v99h887z" />
    <glyph glyph-name="greaterequal" unicode="&#x2265;" 
d="M68 324v102l772 338l-772 336v103l887 -394v-95zM68 164v99h887v-99h-887z" />
    <glyph glyph-name="yen" unicode="&#xa5;" horiz-adv-x="1065" 
d="M747 855h206v-83h-249l-87 -167h336v-83h-354l3 -522h-119l2 522h-374v83h356l-92 167h-264v83h219l-278 510h133l354 -673l348 673h125z" />
    <glyph glyph-name="mu" unicode="&#xb5;" 
d="M113 -339v1322h106v-571q0 -114 18 -174.5t66 -106.5q80 -75 199 -75q138 0 223 108q44 56 62.5 118t18.5 153v548h106v-983h-106v197q-42 -96 -91 -143q-88 -82 -217 -82q-93 0 -159 38t-120 122v-471h-106z" />
    <glyph glyph-name="partialdiff" unicode="&#x2202;" 
d="M191 1280l15 96q159 -23 263 -69q247 -109 376 -365q106 -210 106 -457q0 -190 -79 -312q-65 -100 -172 -153q-89 -44 -186 -44q-154 0 -277 105q-164 139 -164 355q0 151 86 275q66 96 170 143q84 38 174 38q138 0 231 -72q38 -30 89 -100l-11 28q-44 120 -74 175
t-86 119q-86 97 -202.5 157.5t-258.5 80.5zM527 809q-125 0 -219 -81q-58 -50 -92.5 -131t-34.5 -166q0 -165 112 -277q95 -94 222 -94q118 0 210 85q119 111 119 301q0 188 -115 286q-87 75 -202 77z" />
    <glyph glyph-name="summation" unicode="&#x2211;" horiz-adv-x="1365" 
d="M1208 1536v-451h-98l-8 351h-922l519 -881l-519 -968h941l5 347h101v-446h-1164v113l512 954l-512 873v108h1145z" />
    <glyph glyph-name="product" unicode="&#x220f;" horiz-adv-x="1405" 
d="M73 1536h1260v-99h-160v-1850h160v-99h-436v99h170v1850h-729v-1850h169v-99h-434v99h159v1850h-159v99z" />
    <glyph glyph-name="pi" unicode="&#x3c0;" horiz-adv-x="1124" 
d="M200 0v884h-150v96h1024v-96h-148v-884h-106v884h-514v-884h-106z" />
    <glyph glyph-name="integral" unicode="&#x222b;" 
d="M231 -490l28 94q47 -20 83 -20q92 0 110 83q7 37 7 154v1364q0 176 16 226q19 58 72 91.5t127 33.5q51 0 119 -23l-27 -94q-48 21 -85 21q-92 0 -109 -83q-7 -36 -7 -195v-1323q0 -127 -6 -175.5t-25 -80.5q-55 -93 -202 -93q-51 0 -101 20z" />
    <glyph glyph-name="ordfeminine" unicode="&#xaa;" 
d="M371 1205h-82q18 177 225 177q75 0 127.5 -28t68.5 -77q12 -36 12 -130v-217q-1 -117 18 -171h-79q-12 37 -16 71q-41 -50 -80 -69t-98 -19q-83 0 -135 41q-64 50 -64 137q0 99 84.5 152.5t290.5 85.5v34q0 62 -31 90.5t-100 28.5q-123 0 -141 -106zM643 1093
q-161 -31 -226.5 -68.5t-65.5 -100.5q0 -50 33 -80t88 -30q86 0 128.5 54t42.5 164v61zM241 650h525v-71h-525v71z" />
    <glyph glyph-name="ordmasculine" unicode="&#xba;" 
d="M513 1382q107 0 179 -77q84 -90 84 -242q0 -154 -84 -244q-71 -78 -183 -78q-105 0 -176 78q-84 91 -84 243q0 153 84 243q70 75 180 77zM513 1310q-82 0 -131.5 -68.5t-49.5 -179.5q0 -119 57 -190q47 -59 121 -59q84 0 133.5 68t49.5 182q0 111 -49.5 178.5
t-130.5 68.5zM250 650h525v-71h-525v71z" />
    <glyph glyph-name="Omega" unicode="&#x2126;" horiz-adv-x="1365" 
d="M58 0v96h399q-399 227 -399 644q0 324 239 520q168 138 386 138q219 0 386 -138q239 -195 239 -520q0 -206 -101 -369t-298 -275h399v-96h-528v88q154 88 238 179q182 197 182 463q0 273 -193 447q-140 125 -321 125q-180 0 -318 -115q-202 -168 -202 -457
q0 -405 421 -642v-88h-529z" />
    <glyph glyph-name="ae" unicode="&#xe6;" horiz-adv-x="1547" 
d="M1447 477h-658q2 -177 59 -269q83 -135 241 -135q160 0 240 159l103 -19q-34 -111 -125 -174t-218 -63q-118 0 -209 55.5t-139 156.5q-48 -86 -98 -128q-97 -84 -239 -84q-121 0 -204 61q-100 73 -100 199q0 124 100 209q76 64 186.5 92t289.5 29v67q0 145 -30 192
q-47 74 -171 74q-193 0 -245 -181h-100q19 115 92 186q95 92 254 92q122 0 197 -47t96 -137q104 184 303 184q128 0 223 -79q154 -129 152 -440zM1324 566q-3 134 -53 216q-71 117 -201 117q-111 0 -186 -90.5t-91 -242.5h531zM676 477q-142 1 -243 -23q-221 -53 -221 -216
q0 -74 54.5 -119.5t142.5 -45.5q155 0 227 124q40 68 40 196v84z" />
    <glyph glyph-name="oslash" unicode="&#xf8;" horiz-adv-x="1010" 
d="M190 140q-90 144 -90 333q0 259 143 410q107 114 266 114q156 0 267 -112l64 82h91l-109 -140q89 -139 89 -332q0 -257 -143 -407q-108 -112 -268 -112q-155 0 -262 103l-62 -79h-96zM260 230l450 572q-80 98 -199 98q-135 0 -217.5 -120t-82.5 -314q0 -133 49 -236z
M751 736l-448 -574q75 -90 197 -90q134 0 216.5 118t82.5 311q0 135 -48 235z" />
    <glyph glyph-name="questiondown" unicode="&#xbf;" horiz-adv-x="840" 
d="M472 968q43 0 73.5 -30.5t30.5 -73.5q0 -45 -30.5 -75.5t-75.5 -30.5q-43 0 -73.5 31t-30.5 74q0 44 30.5 74t75.5 31zM413 577h112v-24v-103q0 -133 -21.5 -183t-122.5 -152q-80 -81 -109.5 -132.5t-29.5 -109.5q0 -78 49 -123t135 -45q101 0 153 49t64 156h102
q-5 -130 -70 -208q-87 -106 -254 -106q-129 0 -206 62q-96 78 -96 220q0 80 36 142t141 163q85 83 101.5 127t16.5 192q0 27 -1 75z" />
    <glyph glyph-name="exclamdown" unicode="&#xa1;" horiz-adv-x="508" 
d="M313 -398h-118l22 982h83zM254 968q43 0 73.5 -30.5t30.5 -73.5q0 -45 -30.5 -75.5t-75.5 -30.5q-43 0 -73.5 31t-30.5 74q0 44 30.5 74t75.5 31z" />
    <glyph glyph-name="logicalnot" unicode="&#xac;" 
d="M849 0v448h-781v99h887v-547h-106z" />
    <glyph glyph-name="radical" unicode="&#x221a;" horiz-adv-x="1365" 
d="M1365 1696v-99h-415l-480 -1597h-121l-187 633h-162v99h248l89 -295q30 -96 69 -277h8q10 41 49 185l56 210l105 345l237 796h504z" />
    <glyph glyph-name="florin" unicode="&#x192;" horiz-adv-x="1065" 
d="M687 967h204v-100h-221l-134 -761q-40 -226 -80 -293q-64 -109 -203 -109q-92 0 -215 60l22 110q97 -67 184 -67q52 0 81.5 22.5t49.5 75.5q18 48 48 221l131 742h-191v99h209l27 154q30 174 77 241q71 100 199 100q69 0 152 -34l-18 -105q-92 40 -140 40q-81 0 -119 -99
q-19 -52 -41 -173z" />
    <glyph glyph-name="approxequal" unicode="&#x2248;" 
d="M89 712l-67 43q35 70 76 120q79 97 194 97q79 0 235 -78q91 -45 129 -58.5t77 -13.5q62 0 106.5 34.5t94.5 119.5l68 -40q-112 -215 -279 -215q-47 0 -95 17.5t-189 86.5q-97 47 -154 47q-58 0 -103 -36.5t-93 -123.5zM89 397l-67 43q56 113 121 165.5t149 52.5
q79 0 235 -78q89 -45 128.5 -58.5t78.5 -13.5q61 0 105.5 34.5t94.5 119.5l68 -41q-112 -214 -279 -214q-47 0 -97 18.5t-187 85.5q-97 47 -154 47t-102.5 -37t-93.5 -124z" />
    <glyph glyph-name="Delta" unicode="&#x2206;" horiz-adv-x="1365" 
d="M65 0l560 1365h113l563 -1365h-1236zM217 99h930l-465 1137z" />
    <glyph glyph-name="guillemotleft" unicode="&#xab;" horiz-adv-x="707" 
d="M563 0h-69l-172 478l172 489h69l-148 -489zM339 0h-70l-171 478l171 489h70l-148 -489z" />
    <glyph glyph-name="guillemotright" unicode="&#xbb;" horiz-adv-x="707" 
d="M144 967h69l172 -478l-172 -489h-69l148 489zM368 967h70l171 -478l-171 -489h-70l148 489z" />
    <glyph glyph-name="ellipsis" unicode="&#x2026;" horiz-adv-x="1404" 
d="M263 187q43 0 73.5 -31t30.5 -74q0 -44 -31 -74.5t-74 -30.5t-74 30.5t-31 74.5t31 74.5t75 30.5zM702 187q42 0 73 -31t31 -74q0 -44 -31 -74.5t-74 -30.5q-44 0 -74.5 30.5t-30.5 73.5q0 45 30.5 75.5t75.5 30.5zM1141 187q42 0 73 -31t31 -74t-31 -74t-74 -31
q-44 0 -74.5 30.5t-30.5 73.5q0 45 30.5 75.5t75.5 30.5z" />
    <glyph glyph-name="glyph172" horiz-adv-x="1065" 
 />
    <glyph glyph-name="Agrave" unicode="&#xc0;" horiz-adv-x="1134" 
d="M522 1377h90l473 -1377h-122l-134 388h-524l-135 -388h-121zM795 490l-228 720l-229 -720h457zM659 1496h-119l-315 262h170z" />
    <glyph glyph-name="Atilde" unicode="&#xc3;" horiz-adv-x="1134" 
d="M522 1377h90l473 -1377h-122l-134 388h-524l-135 -388h-121zM795 490l-228 720l-229 -720h457zM326 1514l-79 34q15 64 35 103q47 89 146 89q68 0 156 -58q64 -43 88.5 -54.5t51.5 -11.5q83 0 99 131l78 -35q-8 -66 -29 -105q-22 -42 -63.5 -67.5t-87.5 -25.5
q-38 0 -75 15.5t-102 59.5q-72 48 -115 48q-75 0 -103 -123z" />
    <glyph glyph-name="Otilde" unicode="&#xd5;" horiz-adv-x="1305" 
d="M653 1388q154 0 278 -90q136 -99 204 -287q54 -148 54 -328q0 -312 -156 -516q-75 -98 -184 -148q-91 -42 -195 -42q-238 0 -382 190q-156 204 -156 525q0 204 74 369q79 178 224 263q105 62 239 64zM653 1283q-183 0 -293 -166q-117 -177 -117 -427q0 -264 117 -442
q110 -166 293 -166t292 166q117 179 117 435q0 260 -117 434q-110 163 -292 166zM418 1514l-79 34q15 64 35 103q47 89 146 89q68 0 156 -58q64 -43 88.5 -54.5t51.5 -11.5q83 0 99 131l78 -35q-8 -66 -29 -105q-22 -42 -63.5 -67.5t-87.5 -25.5q-38 0 -75 15.5t-102 59.5
q-72 48 -115 48q-75 0 -103 -123z" />
    <glyph glyph-name="OE" unicode="&#x152;" horiz-adv-x="1881" 
d="M1066 1167v198h706v-102h-590v-505h549v-102h-549v-554h599v-102h-715v200q-152 -223 -400 -223t-398 191q-152 194 -152 511q0 356 184 556q142 153 367 153q242 0 399 -221zM655 1283q-149 0 -245 -100q-166 -172 -166 -493q0 -338 163 -506q100 -103 253 -103
q151 0 245 99q159 170 159 501q0 337 -164 505q-92 95 -245 97z" />
    <glyph glyph-name="oe" unicode="&#x153;" horiz-adv-x="1663" 
d="M1561 461h-655q6 -161 58 -251q80 -138 239 -138q171 0 240 161l103 -19q-93 -238 -343 -238q-246 0 -359 229q-121 -229 -339 -229q-187 0 -301 151q-104 137 -104 354q0 258 139 402q109 113 271 113q224 0 336 -238q39 85 96 140q103 98 245 98q218 0 320 -208
q57 -115 57 -261q0 -19 -3 -66zM1440 550q-2 141 -59 236q-68 113 -200 113q-113 0 -185 -91t-90 -258h534zM507 899q-133 0 -215 -115q-80 -113 -80 -301q0 -184 80 -297t211 -113q62 0 117 29.5t89 81.5q77 117 77 301q0 187 -78 301q-74 109 -201 113z" />
    <glyph glyph-name="endash" unicode="&#x2013;" 
d="M161 560h703v-89h-703v89z" />
    <glyph glyph-name="emdash" unicode="&#x2014;" horiz-adv-x="1138" 
d="M0 560h1138v-89h-1138v89z" />
    <glyph glyph-name="quotedblleft" unicode="&#x201c;" horiz-adv-x="787" 
d="M580 1388h128q-143 -136 -160 -241q13 2 20 2q40 0 69 -30.5t29 -72.5q0 -45 -32.5 -76.5t-79.5 -31.5q-54 0 -87 38t-33 100q0 143 146 312zM273 1388h128q-143 -136 -160 -241q13 2 20 2q39 0 68 -30.5t29 -72.5q0 -45 -32.5 -76.5t-79.5 -31.5q-53 0 -86 38.5
t-33 99.5q0 143 146 312z" />
    <glyph glyph-name="quotedblright" unicode="&#x201d;" horiz-adv-x="814" 
d="M208 938h-129q143 130 160 240q-12 -1 -20 -1q-39 0 -68 30.5t-29 72.5q0 45 32.5 76.5t78.5 31.5q54 0 87 -38.5t33 -99.5q0 -144 -145 -312zM542 938h-128q142 130 160 240q-13 -1 -20 -1q-40 0 -69 30.5t-29 72.5q0 45 32.5 76.5t79.5 31.5q53 0 86.5 -38.5
t33.5 -99.5q0 -144 -146 -312z" />
    <glyph glyph-name="quoteleft" unicode="&#x2018;" horiz-adv-x="480" 
d="M273 1388h128q-143 -136 -160 -241q13 2 20 2q39 0 68 -30.5t29 -72.5q0 -45 -32.5 -76.5t-79.5 -31.5q-53 0 -86 38.5t-33 99.5q0 143 146 312z" />
    <glyph glyph-name="quoteright" unicode="&#x2019;" horiz-adv-x="480" 
d="M208 938h-129q143 130 160 240q-12 -1 -20 -1q-39 0 -68 30.5t-29 72.5q0 45 32.5 76.5t78.5 31.5q54 0 87 -38.5t33 -99.5q0 -144 -145 -312z" />
    <glyph glyph-name="divide" unicode="&#xf7;" horiz-adv-x="1065" 
d="M533 497q34 0 59 -25t25 -60t-25 -60t-60 -25t-60 24.5t-25 59.5q0 36 25 61t61 25zM533 1038q34 0 59 -25t25 -60t-25 -60t-61 -25q-34 0 -59 25t-25 59q0 36 25 61t61 25zM112 730h842v-83h-842v83z" />
    <glyph glyph-name="lozenge" unicode="&#x25ca;" horiz-adv-x="1365" 
d="M683 1419l531 -736l-531 -736l-532 736zM683 1238l-404 -555l404 -554l403 554z" />
    <glyph glyph-name="ydieresis" unicode="&#xff;" horiz-adv-x="855" 
d="M33 969h115l279 -831l289 831h113l-317 -887q-66 -190 -92 -250t-64 -111q-95 -129 -268 -129q-15 0 -34 1v95q127 -2 188 57q34 34 57.5 82t68.5 174zM258 1378q40 0 68 -28.5t28 -68.5q0 -41 -28.5 -69.5t-68.5 -28.5q-41 0 -69.5 28.5t-28.5 68.5q0 42 28.5 70
t70.5 28zM606 1378q40 0 68 -28.5t28 -68.5q0 -41 -28.5 -69.5t-68.5 -28.5q-41 0 -69.5 28.5t-28.5 68.5q0 42 28.5 70t70.5 28z" />
    <glyph glyph-name="Ydieresis" unicode="&#x178;" horiz-adv-x="1014" 
d="M32 1365h137l340 -669l336 669h137l-420 -780l3 -585h-116l3 585zM329 1732q42 0 72.5 -30.5t30.5 -74.5q0 -43 -30.5 -73.5t-73.5 -30.5q-44 0 -74.5 30.5t-30.5 73.5q0 44 30.5 74.5t75.5 30.5zM689 1732q42 0 72.5 -30.5t30.5 -74.5q0 -43 -30.5 -73.5t-73.5 -30.5
q-44 0 -74.5 30.5t-30.5 73.5q0 44 30.5 74.5t75.5 30.5z" />
    <glyph glyph-name="fraction" unicode="&#x2215;" horiz-adv-x="245" 
d="M464 1331h99l-783 -1331h-98z" />
    <glyph glyph-name="currency" unicode="&#xa4;" horiz-adv-x="1365" 
d="M136 243l185 189q-107 136 -107 294q0 151 107 291l-191 189l66 66l188 -188q142 110 299 110q158 0 296 -110l190 188l65 -66l-189 -187q107 -139 107 -295t-106 -292l190 -189l-65 -66l-190 189q-138 -107 -295 -107q-151 0 -298 107l-188 -189zM688 1092
q-155 0 -262 -108q-106 -107 -106 -259q0 -150 106 -257q107 -107 257 -107t257 108q106 106 106 256q0 155 -105 259t-253 108z" />
    <glyph glyph-name="guilsinglleft" unicode="&#x2039;" horiz-adv-x="450" 
d="M326 0h-80l-171 478l171 489h80l-148 -489z" />
    <glyph glyph-name="guilsinglright" unicode="&#x203a;" horiz-adv-x="450" 
d="M124 967h79l172 -478l-172 -489h-79l148 489z" />
    <glyph glyph-name="fi" unicode="&#xf001;" horiz-adv-x="974" 
d="M284 969h245v-89h-238v-880h-117v880h-140v89h140v63q0 110 6 154t27 84q28 55 84.5 86.5t126.5 31.5q61 0 131 -25v-108q-58 36 -122 36q-97 0 -127 -83q-16 -44 -16 -159v-80zM703 969h117v-969h-117v969zM762 1381q38 0 64 -26.5t26 -65.5q0 -38 -25.5 -63.5
t-64.5 -25.5t-65 25.5t-26 63.5q0 39 26 65.5t65 26.5z" />
    <glyph glyph-name="fl" unicode="&#xf002;" horiz-adv-x="974" 
d="M284 969h245v-89h-238v-880h-117v880h-140v89h140v63q0 110 6 154t27 84q28 55 84.5 86.5t126.5 31.5q61 0 131 -25v-108q-56 36 -122 36q-97 0 -127 -83q-16 -44 -16 -159v-80zM703 1371h117v-1371h-117v1371z" />
    <glyph glyph-name="daggerdbl" unicode="&#x2021;" 
d="M463 1331h101v-243h393v-97h-393v-890h393v-97h-393v-277h-101v277h-396v97h396v890h-396v97h396v243z" />
    <glyph glyph-name="periodcentered" unicode="&#x2219;" horiz-adv-x="526" 
d="M263 617q43 0 73.5 -31t30.5 -74q0 -44 -31 -74.5t-74 -30.5q-44 0 -74.5 30.5t-30.5 73.5q0 45 31 75.5t75 30.5z" />
    <glyph glyph-name="quotesinglbase" unicode="&#x201a;" horiz-adv-x="480" 
d="M208 -244h-129q143 132 160 241q-13 -2 -20 -2q-39 0 -68 30.5t-29 71.5q0 46 32.5 77.5t78.5 31.5q54 0 87 -38.5t33 -99.5q0 -143 -145 -312z" />
    <glyph glyph-name="quotedblbase" unicode="&#x201e;" horiz-adv-x="814" 
d="M208 -244h-129q143 132 160 241q-13 -2 -20 -2q-39 0 -68 30.5t-29 71.5q0 46 32.5 77.5t78.5 31.5q54 0 87 -38.5t33 -99.5q0 -143 -145 -312zM542 -244h-128q142 132 160 241q-14 -2 -20 -2q-40 0 -69 30.5t-29 71.5q0 46 32.5 77.5t79.5 31.5q53 0 86.5 -38t33.5 -100
q0 -143 -146 -312z" />
    <glyph glyph-name="perthousand" unicode="&#x2030;" horiz-adv-x="1658" 
d="M892 1365h99l-806 -1365h-98zM785 644q107 0 177 -94q72 -95 72 -234q0 -154 -85 -250q-69 -77 -166 -77q-105 0 -175 93q-72 95 -72 234q0 140 71 233.5t178 94.5zM785 553q-63 0 -104.5 -67.5t-41.5 -169.5q0 -105 44 -173q41 -63 101 -63q64 0 106 67t42 169
t-41.5 169t-105.5 68zM1365 644q107 0 177 -94q72 -95 72 -234q0 -154 -85 -250q-69 -77 -166 -77q-104 0 -175 93q-72 95 -72 234q0 155 85 251q68 76 164 77zM1365 553q-63 0 -104.5 -67.5t-41.5 -169.5q0 -105 44 -173q41 -63 101 -63q64 0 106 67t42 169t-41.5 169
t-105.5 68zM292 1376q107 0 177 -93q72 -95 72 -235q0 -155 -85 -250q-69 -77 -166 -77q-104 0 -175 93q-72 95 -72 234q0 156 85 251q68 76 164 77zM292 1285q-63 0 -104.5 -67.5t-41.5 -169.5q0 -105 44 -172q41 -64 100 -64q65 0 106.5 67t41.5 169t-41 169t-105 68z" />
    <glyph glyph-name="Acircumflex" unicode="&#xc2;" horiz-adv-x="1134" 
d="M522 1377h90l473 -1377h-122l-134 388h-524l-135 -388h-121zM795 490l-228 720l-229 -720h457zM231 1496l261 262h151l261 -262h-109l-228 188l-227 -188h-109z" />
    <glyph glyph-name="Ecircumflex" unicode="&#xca;" horiz-adv-x="1004" 
d="M296 758h558v-102h-558v-554h608v-102h-724v1365h715v-102h-599v-505zM206 1496l261 262h151l261 -262h-109l-228 188l-227 -188h-109z" />
    <glyph glyph-name="Aacute" unicode="&#xc1;" horiz-adv-x="1134" 
d="M522 1377h90l473 -1377h-122l-134 388h-524l-135 -388h-121zM795 490l-228 720l-229 -720h457zM474 1496l264 262h170l-315 -262h-119z" />
    <glyph glyph-name="Edieresis" unicode="&#xcb;" horiz-adv-x="1004" 
d="M296 758h558v-102h-558v-554h608v-102h-724v1365h715v-102h-599v-505zM363 1732q42 0 72.5 -30.5t30.5 -74.5q0 -43 -30.5 -73.5t-73.5 -30.5q-44 0 -74.5 30.5t-30.5 73.5q0 44 30.5 74.5t75.5 30.5zM723 1732q42 0 72.5 -30.5t30.5 -74.5q0 -43 -30.5 -73.5
t-73.5 -30.5q-44 0 -74.5 30.5t-30.5 73.5q0 44 30.5 74.5t75.5 30.5z" />
    <glyph glyph-name="Egrave" unicode="&#xc8;" horiz-adv-x="1004" 
d="M296 758h558v-102h-558v-554h608v-102h-724v1365h715v-102h-599v-505zM664 1496h-119l-315 262h170z" />
    <glyph glyph-name="Iacute" unicode="&#xcd;" horiz-adv-x="476" 
d="M299 0h-122v1365h122v-1365zM150 1496l210 262h163l-261 -262h-112z" />
    <glyph glyph-name="Icircumflex" unicode="&#xce;" horiz-adv-x="476" 
d="M299 0h-122v1365h122v-1365zM-51 1496l213 262h152l212 -262h-102l-186 188l-186 -188h-103z" />
    <glyph glyph-name="Idieresis" unicode="&#xcf;" horiz-adv-x="476" 
d="M299 0h-122v1365h122v-1365zM103 1730q42 0 71.5 -30t29.5 -73q0 -42 -30 -72t-72 -30q-43 0 -73 30t-30 72q0 43 30 73t74 30zM376 1730q42 0 71.5 -30t29.5 -73q0 -42 -30 -72t-72 -30q-43 0 -73 30t-30 72q0 44 30 73.5t74 29.5z" />
    <glyph glyph-name="Igrave" unicode="&#xcc;" horiz-adv-x="476" 
d="M299 0h-122v1365h122v-1365zM326 1496h-112l-261 262h163z" />
    <glyph glyph-name="Oacute" unicode="&#xd3;" horiz-adv-x="1305" 
d="M653 1388q154 0 278 -90q136 -99 204 -287q54 -148 54 -328q0 -312 -156 -516q-75 -98 -184 -148q-91 -42 -195 -42q-238 0 -382 190q-156 204 -156 525q0 204 74 369q79 178 224 263q105 62 239 64zM653 1283q-183 0 -293 -166q-117 -177 -117 -427q0 -264 117 -442
q110 -166 293 -166t292 166q117 179 117 435q0 260 -117 434q-110 163 -292 166zM521 1496l264 262h170l-315 -262h-119z" />
    <glyph glyph-name="Ocircumflex" unicode="&#xd4;" horiz-adv-x="1305" 
d="M653 1388q154 0 278 -90q136 -99 204 -287q54 -148 54 -328q0 -312 -156 -516q-75 -98 -184 -148q-91 -42 -195 -42q-238 0 -382 190q-156 204 -156 525q0 204 74 369q79 178 224 263q105 62 239 64zM653 1283q-183 0 -293 -166q-117 -177 -117 -427q0 -264 117 -442
q110 -166 293 -166t292 166q117 179 117 435q0 260 -117 434q-110 163 -292 166zM316 1496l261 262h151l261 -262h-109l-228 188l-227 -188h-109z" />
    <glyph glyph-name="apple" horiz-adv-x="1365" 
d="M984 1416v-21q0 -161 -127 -265q-48 -39 -86 -54t-91 -15q3 146 84.5 241.5t219.5 113.5zM1277 935q-65 -50 -98 -92q-67 -84 -67 -192q0 -103 54 -184t149 -122q-66 -161 -139 -256q-110 -143 -208 -143q-30 0 -50.5 6.5t-114.5 45.5q-16 7 -78 7q-52 0 -75 -5.5
t-107 -39.5q-42 -17 -79 -17q-55 0 -114 43.5t-112 123.5q-73 108 -118 231q-54 149 -54 288q0 183 100 314q103 134 283 134q66 0 158 -36q68 -26 97 -26q35 0 89 21q80 30 111.5 37.5t76.5 7.5q189 0 296 -146z" />
    <glyph glyph-name="Ograve" unicode="&#xd2;" horiz-adv-x="1305" 
d="M653 1388q154 0 278 -90q136 -99 204 -287q54 -148 54 -328q0 -312 -156 -516q-75 -98 -184 -148q-91 -42 -195 -42q-238 0 -382 190q-156 204 -156 525q0 204 74 369q79 178 224 263q105 62 239 64zM653 1283q-183 0 -293 -166q-117 -177 -117 -427q0 -264 117 -442
q110 -166 293 -166t292 166q117 179 117 435q0 260 -117 434q-110 163 -292 166zM788 1496h-119l-315 262h170z" />
    <glyph glyph-name="Uacute" unicode="&#xda;" horiz-adv-x="1246" 
d="M159 1365h116v-810q1 -154 6 -200q10 -110 64 -170q42 -48 116 -75.5t161 -27.5q119 0 209 49q63 33 94 86t40 138q4 45 5 200v810h116v-812q0 -168 -4 -218t-23 -103q-43 -121 -156 -188q-114 -67 -281 -67q-251 0 -376 148q-71 86 -82 210q-5 56 -5 218v812zM491 1496
l264 262h170l-315 -262h-119z" />
    <glyph glyph-name="Ucircumflex" unicode="&#xdb;" horiz-adv-x="1246" 
d="M159 1365h116v-810q1 -154 6 -200q10 -110 64 -170q42 -48 116 -75.5t161 -27.5q119 0 209 49q63 33 94 86t40 138q4 45 5 200v810h116v-812q0 -168 -4 -218t-23 -103q-43 -121 -156 -188q-114 -67 -281 -67q-251 0 -376 148q-71 86 -82 210q-5 56 -5 218v812zM286 1496
l261 262h151l261 -262h-109l-228 188l-227 -188h-109z" />
    <glyph glyph-name="Ugrave" unicode="&#xd9;" horiz-adv-x="1246" 
d="M159 1365h116v-810q1 -154 6 -200q10 -110 64 -170q42 -48 116 -75.5t161 -27.5q119 0 209 49q63 33 94 86t40 138q4 45 5 200v810h116v-812q0 -168 -4 -218t-23 -103q-43 -121 -156 -188q-114 -67 -281 -67q-251 0 -376 148q-71 86 -82 210q-5 56 -5 218v812zM753 1496
h-119l-315 262h170z" />
    <glyph glyph-name="dotlessi" unicode="&#x131;" horiz-adv-x="424" 
d="M154 969h117v-969h-117v969z" />
    <glyph glyph-name="circumflex" unicode="&#x2c6;" 
d="M210 1145l226 279h152l227 -279h-110l-193 199l-193 -199h-109z" />
    <glyph glyph-name="tilde" unicode="&#x2dc;" 
d="M286 1162l-76 17q35 211 170 211q61 0 139 -60q87 -66 126 -66q72 0 89 131l80 -18q-10 -88 -45 -144q-46 -73 -122 -73q-64 0 -151 66q-81 61 -118 61q-68 0 -92 -125z" />
    <glyph glyph-name="macron" unicode="&#xaf;" 
d="M238 1328h548v-95h-548v95z" />
    <glyph glyph-name="breve" unicode="&#x2d8;" 
d="M268 1409h78q16 -77 60.5 -121.5t106.5 -44.5t105.5 43.5t58.5 122.5h79q-7 -71 -30 -124q-62 -146 -211 -146q-101 0 -168.5 73.5t-78.5 196.5z" />
    <glyph glyph-name="dotaccent" unicode="&#x2d9;" 
d="M514 1378q40 0 68 -28.5t28 -68.5q0 -41 -28.5 -69.5t-68.5 -28.5q-41 0 -69.5 28.5t-28.5 68.5q0 42 28.5 70t70.5 28z" />
    <glyph glyph-name="ring" unicode="&#x2da;" 
d="M514 1480q75 0 128.5 -54t53.5 -130t-54 -130t-130 -54q-77 0 -130 54q-54 54 -54 130q0 77 54 130.5t132 53.5zM513 1398q-43 0 -73 -29.5t-30 -72.5q0 -42 30 -72t72 -30q43 0 72.5 30t29.5 72t-29 71.5t-72 30.5z" />
    <glyph glyph-name="cedilla" unicode="&#xb8;" 
d="M484 0h86l-63 -122q172 -22 172 -143q0 -71 -52.5 -114.5t-139.5 -43.5q-73 0 -143 28v71q67 -19 104 -19q51 0 80.5 24.5t29.5 66.5q0 45 -35.5 66t-122.5 26z" />
    <glyph glyph-name="hungarumlaut" unicode="&#x2dd;" 
d="M361 1143l173 263h136l-207 -263h-102zM573 1143l173 263h136l-207 -263h-102z" />
    <glyph glyph-name="ogonek" unicode="&#x2db;" 
d="M568 0h134q-195 -73 -195 -170q0 -41 33 -67.5t84 -26.5q39 0 79 13v-85q-61 -18 -112 -18q-62 0 -112 26q-39 20 -62.5 58.5t-23.5 82.5q0 63 47 113t128 74z" />
    <glyph glyph-name="caron" unicode="&#x2c7;" 
d="M815 1424l-227 -279h-152l-226 279h109l193 -199l193 199h110z" />
    <glyph glyph-name="glyph226" horiz-adv-x="512" 
 />
    <glyph glyph-name="glyph227" horiz-adv-x="512" 
 />
    <glyph glyph-name="glyph228" horiz-adv-x="512" 
 />
    <glyph glyph-name="glyph229" horiz-adv-x="512" 
 />
    <glyph glyph-name="glyph230" horiz-adv-x="512" 
 />
    <glyph glyph-name="glyph231" horiz-adv-x="512" 
 />
    <glyph glyph-name="glyph232" horiz-adv-x="512" 
 />
    <glyph glyph-name="glyph233" horiz-adv-x="512" 
 />
    <glyph glyph-name="glyph234" horiz-adv-x="512" 
 />
    <glyph glyph-name="glyph235" horiz-adv-x="512" 
 />
    <glyph glyph-name="glyph236" horiz-adv-x="512" 
 />
    <glyph glyph-name="glyph237" horiz-adv-x="512" 
 />
    <glyph glyph-name="glyph238" horiz-adv-x="512" 
 />
    <glyph glyph-name="glyph239" horiz-adv-x="512" 
 />
    <glyph glyph-name="glyph240" horiz-adv-x="512" 
 />
    <glyph glyph-name="glyph241" horiz-adv-x="512" 
 />
    <glyph glyph-name="glyph242" horiz-adv-x="512" 
 />
    <glyph glyph-name="glyph243" horiz-adv-x="512" 
 />
    <glyph glyph-name="glyph244" horiz-adv-x="512" 
 />
    <glyph glyph-name="glyph245" horiz-adv-x="512" 
 />
    <glyph glyph-name="glyph246" horiz-adv-x="512" 
 />
    <glyph glyph-name="glyph247" horiz-adv-x="512" 
 />
    <glyph glyph-name="glyph248" horiz-adv-x="512" 
 />
    <glyph glyph-name="glyph249" horiz-adv-x="512" 
 />
    <glyph glyph-name="glyph250" horiz-adv-x="512" 
 />
    <glyph glyph-name="glyph251" horiz-adv-x="512" 
 />
    <glyph glyph-name="glyph252" horiz-adv-x="512" 
 />
    <glyph glyph-name="glyph253" horiz-adv-x="512" 
 />
    <glyph glyph-name="glyph254" horiz-adv-x="512" 
 />
    <glyph glyph-name="glyph255" horiz-adv-x="512" 
 />
    <glyph glyph-name="glyph256" horiz-adv-x="512" 
 />
    <glyph glyph-name="glyph257" horiz-adv-x="512" 
 />
    <glyph glyph-name="brokenbar" unicode="&#xa6;" 
d="M459 1365h106v-671h-106v671zM459 314h106v-655h-106v655z" />
    <glyph glyph-name="twosuperior" unicode="&#xb2;" horiz-adv-x="705" 
d="M207 1086h-85q3 255 247 255q89 0 150 -41q79 -53 79 -151q0 -70 -57 -154q-14 -19 -202 -256l-87 -108l-18 -24h379v-75h-493v62l104 132l88 111q146 185 170.5 224t24.5 86q0 54 -38.5 85.5t-103.5 31.5q-77 0 -115 -43t-43 -135z" />
    <glyph glyph-name="threesuperior" unicode="&#xb3;" horiz-adv-x="705" 
d="M193 1117h-82q6 101 55 153q67 71 185 71q104 0 168.5 -54.5t64.5 -143.5q0 -118 -110 -173q141 -58 141 -202q0 -110 -73.5 -177.5t-194.5 -67.5q-122 0 -191 60q-70 62 -70 157q0 14 1 28h81q3 -168 175 -168q85 0 133 44t48 121q0 76 -48.5 117.5t-137.5 41.5
q-17 0 -44 -3v81q29 -3 43 -3q72 0 114 37.5t42 101.5q0 59 -38.5 92.5t-106.5 33.5q-136 0 -155 -147z" />
    <glyph glyph-name="middot" unicode="&#xb7;" horiz-adv-x="526" 
d="M263 617q43 0 73.5 -31t30.5 -74q0 -44 -31 -74.5t-74 -30.5q-44 0 -74.5 30.5t-30.5 73.5q0 45 31 75.5t75 30.5z" />
    <glyph glyph-name="onesuperior" unicode="&#xb9;" horiz-adv-x="705" 
d="M166 1159v64q85 4 121 28t52 87h64v-806h-85v627h-152z" />
    <glyph glyph-name="onequarter" unicode="&#xbc;" horiz-adv-x="1655" 
d="M166 1159v64q85 4 121 28t52 87h64v-806h-85v627h-152zM1168 1331h100l-783 -1331h-98zM1444 276h145v-77h-144v-206h-89v206h-343v61l351 546h80v-530zM1358 276l2 396l-252 -396h250z" />
    <glyph glyph-name="onehalf" unicode="&#xbd;" horiz-adv-x="1655" 
d="M166 1159v64q85 4 121 28t52 87h64v-806h-85v627h-152zM1168 1331h100l-783 -1331h-98zM1158 554h-85q3 255 247 255q88 0 150 -42q78 -53 78 -150q0 -70 -57 -154q-11 -16 -201 -255l-87 -110l-18 -23h378v-75h-492v62l104 132l88 112q129 164 150 193q44 62 44 116
q0 53 -38.5 85t-102.5 32q-77 0 -115 -43t-43 -135z" />
    <glyph glyph-name="threequarters" unicode="&#xbe;" horiz-adv-x="1655" 
d="M193 1117h-82q6 101 55 153q67 71 185 71q104 0 168.5 -54.5t64.5 -143.5q0 -118 -110 -173q141 -57 141 -202q0 -110 -73.5 -177.5t-194.5 -67.5q-122 0 -191 60q-70 62 -70 157q0 14 1 28h81q3 -168 175 -168q85 0 133 44t48 121q0 76 -48.5 117.5t-137.5 41.5
q-17 0 -44 -3v81q29 -3 43 -3q72 0 114 37.5t42 101.5q0 59 -38.5 92.5t-106.5 33.5q-136 0 -155 -147zM1168 1331h100l-783 -1331h-98zM1443 276h146v-77h-144v-206h-89v206h-343v61l351 546h79v-530zM1358 276l2 396l-252 -396h250z" />
    <glyph glyph-name="Eth" unicode="&#xd0;" horiz-adv-x="1270" 
d="M180 1365h173q186 0 274 -11q267 -32 407 -245q119 -180 119 -426q0 -278 -144 -461q-148 -187 -391 -212q-92 -10 -273 -10h-165v667h-137v96h137v602zM296 102h93q153 0 220 8q137 17 242 108q175 153 175 463q0 273 -137 431q-103 119 -271 141q-77 10 -258 10h-64
v-500h368v-96h-368v-565z" />
    <glyph glyph-name="multiply" unicode="&#xd7;" horiz-adv-x="1065" 
d="M590 689l293 -293l-58 -58l-294 293l-292 -293l-57 57l293 293l-294 293l58 59l294 -294l293 293l56 -57z" />
    <glyph glyph-name="Yacute" unicode="&#xdd;" horiz-adv-x="1014" 
d="M32 1365h137l340 -669l336 669h137l-420 -780l3 -585h-116l3 585zM376 1496l264 262h170l-315 -262h-119z" />
    <glyph glyph-name="Thorn" unicode="&#xde;" horiz-adv-x="1050" 
d="M180 1365h116v-159h78q266 0 372 -35q118 -40 185 -151q53 -89 53 -216q0 -155 -82 -253q-89 -107 -255 -127q-84 -10 -245 -10h-106v-414h-116v1365zM296 516h102q173 0 258 18q200 41 200 272q0 132 -72 209q-50 55 -128 72t-285 17h-75v-588z" />
    <glyph glyph-name="eth" unicode="&#xf0;" horiz-adv-x="1010" 
d="M517 1261l154 90l44 -75l-146 -83l94 -120q124 -159 159 -221q88 -156 88 -353q0 -257 -133 -405q-106 -118 -270 -118q-168 0 -278 122q-129 144 -129 383q0 265 141 405q51 51 120 80.5t136 29.5q48 0 109 -23l-126 169l-152 -88l-47 73l153 88l-87 118l73 40zM518 899
q-125 0 -201 -84q-105 -117 -105 -332q0 -195 93 -313q77 -97 202 -97q123 0 197 95q95 124 95 315q0 208 -101 333q-65 80 -180 83z" />
    <glyph glyph-name="yacute" unicode="&#xfd;" horiz-adv-x="855" 
d="M33 969h115l279 -831l289 831h113l-317 -887q-66 -190 -92 -250t-64 -111q-95 -129 -268 -129q-15 0 -34 1v95q127 -2 188 57q34 34 57.5 82t68.5 174zM322 1144l196 263h170l-270 -263h-96z" />
    <glyph glyph-name="thorn" unicode="&#xfe;" horiz-adv-x="1012" 
d="M154 -404v1775h106v-553q56 97 119.5 138t157.5 41q133 0 221 -85q155 -149 155 -432q0 -256 -127 -401q-91 -103 -239 -103q-185 0 -287 168v-548h-106zM536 900q-119 0 -187 -93q-91 -126 -91 -321t88 -313q75 -100 193 -100q113 0 175 83q88 118 88 321
q0 226 -104 350q-59 71 -162 73z" />
    <glyph glyph-name="Lslash" unicode="&#x141;" horiz-adv-x="946" 
d="M180 694v671h122v-607l299 225v-117l-299 -224v-540h581v-102h-703v577l-137 -102v117z" />
    <glyph glyph-name="lslash" unicode="&#x142;" horiz-adv-x="424" 
d="M154 743v628h117v-570l148 108v-105l-148 -108v-696h-117v638l-149 -109v105z" />
    <glyph glyph-name="Scaron" unicode="&#x160;" horiz-adv-x="1109" 
d="M940 1028h-114q-12 112 -69 173q-76 82 -211 82q-107 0 -178 -55q-88 -67 -88 -171q0 -97 86 -159q34 -25 65 -41t184 -87q222 -103 287 -185q78 -96 78 -229q0 -189 -148 -296q-115 -83 -283 -83q-225 0 -341 142q-82 100 -92 281h116q7 -136 69 -212q41 -50 108 -78
t145 -28q132 0 218 74q86 75 86 193q0 107 -78 180q-53 49 -204 118q-219 102 -279 144q-136 98 -136 258q0 155 122 252q109 87 271 87q174 0 275.5 -94.5t110.5 -265.5zM891 1758l-261 -262h-151l-261 262h109l228 -188l227 188h109z" />
    <glyph glyph-name="scaron" unicode="&#x161;" horiz-adv-x="865" 
d="M757 711h-104q-10 92 -54 134q-55 54 -159 54q-91 0 -146.5 -44.5t-55.5 -117.5q0 -63 45 -98t177 -75q119 -35 173.5 -60t84.5 -59q59 -64 59 -172q0 -128 -82 -208q-91 -89 -255 -89q-166 0 -255.5 81.5t-89.5 233.5h105q20 -219 240 -219q96 0 157 47q67 51 67 143
q0 83 -60 125q-24 18 -54.5 29t-166.5 54q-147 46 -200 105q-56 64 -56 159q0 129 102 200q89 62 213 62q84 0 154.5 -29.5t108.5 -81.5q47 -63 52 -174zM749 1424l-227 -279h-152l-226 279h109l193 -199l193 199h110z" />
    <glyph glyph-name="Zcaron" unicode="&#x17d;" horiz-adv-x="1003" 
d="M106 1365h826v-79l-727 -1184h716v-102h-853v90l720 1173h-682v102zM854 1758l-261 -262h-151l-261 262h109l228 -188l227 188h109z" />
    <glyph glyph-name="zcaron" unicode="&#x17e;" horiz-adv-x="796" 
d="M84 969h675v-77l-589 -803h572v-89h-698v85l581 795h-541v89zM725 1424l-227 -279h-152l-226 279h109l193 -199l193 199h110z" />
    <glyph glyph-name="minus" unicode="&#x2212;" horiz-adv-x="1065" 
d="M112 730h842v-83h-842v83z" />
    <glyph glyph-name="glyph280" 
d="M383 1377q39 0 67 -28.5t28 -67.5q0 -41 -28 -69t-68 -28q-41 0 -69 28t-28 68q0 41 28.5 69t69.5 28zM644 1377q39 0 67 -28.5t28 -67.5q0 -41 -28 -69t-68 -28t-68.5 28t-28.5 68q0 41 28.5 69t69.5 28z" />
    <glyph glyph-name="glyph281" 
d="M264 1514l-79 34q15 64 35 103q47 89 146 89q68 0 156 -58q64 -43 88.5 -54.5t51.5 -11.5q83 0 99 131l78 -35q-8 -66 -29 -105q-22 -42 -63.5 -67.5t-87.5 -25.5q-38 0 -75 15.5t-102 59.5q-72 48 -115 48q-75 0 -103 -123z" />
    <glyph glyph-name="glyph282" 
d="M377 1730q42 0 71.5 -30t29.5 -73q0 -42 -30 -72t-72 -30q-43 0 -73 30t-30 72q0 43 30 73t74 30zM650 1730q42 0 71.5 -30t29.5 -73q0 -42 -30 -72t-72 -30q-43 0 -73 30t-30 72q0 44 30 73.5t74 29.5z" />
    <glyph glyph-name="glyph283" 
d="M849 1758l-261 -262h-151l-261 262h109l228 -188l227 188h109z" />
    <glyph glyph-name="glyph284" 
d="M600 1496h-119l-315 262h170z" />
    <glyph glyph-name="glyph285" 
d="M176 1496l261 262h151l261 -262h-109l-228 188l-227 -188h-109z" />
    <glyph glyph-name="glyph286" 
d="M333 1732q42 0 72.5 -30.5t30.5 -74.5q0 -43 -30.5 -73.5t-73.5 -30.5q-44 0 -74.5 30.5t-30.5 73.5q0 44 30.5 74.5t75.5 30.5zM693 1732q42 0 72.5 -30.5t30.5 -74.5q0 -43 -30.5 -73.5t-73.5 -30.5q-44 0 -74.5 30.5t-30.5 73.5q0 44 30.5 74.5t75.5 30.5z" />
    <glyph glyph-name="glyph287" 
d="M514 1828q75 0 128.5 -54t53.5 -130t-54 -130t-130 -54t-130 54t-54 130q0 77 54 130.5t132 53.5zM513 1746q-43 0 -73 -29.5t-30 -72.5q0 -42 30 -71.5t72 -29.5t72 29.5t30 71.5t-29 71.5t-72 30.5z" />
    <glyph glyph-name="glyph288" 
d="M435 1496l264 262h170l-315 -262h-119z" />
    <glyph glyph-name="glyph289" horiz-adv-x="512" 
 />
    </font>
</defs>
</svg>
